<svg width="169" height="31" viewBox="0 0 169 31" fill="none" xmlns="http://www.w3.org/2000/svg">
<path d="M23.9289 13.3862L24.7667 14.8488L25.6046 16.3114L23.9115 19.2266L22.2333 16.3014L23.9289 13.3862Z" fill="#00A3BB"/>
<path d="M27.3176 7.55566L32.2506 16.1575L24.147 30.0989L17.6027 30.0816L15.9145 30.0766L14.2289 30.0716L15.922 27.154L20.5377 19.2165L22.2159 22.1441L19.2958 27.1664L22.4688 27.1738L28.8793 16.1501L25.6245 10.4733L27.3176 7.55566Z" fill="#00A3BB"/>
<path d="M24.8982 7.28553L27.1714 3.37132L28.0489 3.85967L27.806 2.28556L27.449 0.00247891V0L27.4465 0.00247891L25.2031 0.949424L23.8521 1.52205L24.6206 1.95091L23.22 4.36041L21.5269 7.27809L9.98011 27.1367H9.71735L3.3738 16.0708L9.7818 5.04459L16.7748 5.06442L8.5473 19.224L10.223 22.1491L20.1486 5.07682L21.8417 2.15913L18.4704 2.1517L8.10357 2.11947L0 16.0609L8.02177 30.0494H8.28701L11.6608 30.0618L13.3514 27.1466L23.2026 10.2032L24.8982 7.28553Z" fill="#00A3BB"/>
<path d="M43.8496 10.2677C42.6146 9.67055 41.2547 9.37732 39.8833 9.4125H34.9131V23.344H39.8883C41.2596 23.3792 42.6195 23.0859 43.8545 22.4888C44.9333 21.9509 45.8318 21.1101 46.44 20.0694C47.0701 18.9434 47.3836 17.668 47.3473 16.3782C47.383 15.0842 47.066 13.8048 46.4301 12.6772C45.821 11.6415 44.9246 10.8045 43.8496 10.2677ZM43.5298 18.2796C43.3303 18.7542 43.0201 19.1741 42.625 19.5042C42.238 19.813 41.7904 20.0368 41.3112 20.1611C40.8079 20.2936 40.2897 20.3602 39.7693 20.3594H38.3761V12.3971H39.7693C40.2897 12.3963 40.8079 12.4629 41.3112 12.5954C41.7904 12.7197 42.238 12.9435 42.625 13.2523C43.0201 13.5824 43.3303 14.0023 43.5298 14.4769C43.7757 15.0799 43.8938 15.7273 43.8768 16.3782C43.8938 17.0292 43.7757 17.6766 43.5298 18.2796Z" fill="white"/>
<path d="M61.5614 11.123C60.8775 10.4675 60.0692 9.95583 59.1841 9.6183C57.2638 8.91239 55.155 8.91239 53.2347 9.6183C52.3462 9.95374 51.5343 10.4646 50.8475 11.1205C50.1683 11.7752 49.6293 12.5613 49.2635 13.4309C48.8777 14.3642 48.6854 15.366 48.6983 16.3758C48.6852 17.3934 48.8705 18.4038 49.2436 19.3505C49.5956 20.2319 50.1246 21.0317 50.7979 21.7005C51.4773 22.3707 52.2862 22.8954 53.1752 23.2424C55.1193 23.9728 57.2623 23.9728 59.2064 23.2424C60.0958 22.8948 60.9054 22.3703 61.5862 21.7005C62.258 21.031 62.7861 20.2313 63.138 19.3505C63.5119 18.4039 63.698 17.3935 63.6858 16.3758C63.6986 15.3668 63.5089 14.3654 63.128 13.4309C62.7703 12.5619 62.237 11.7762 61.5614 11.123ZM59.6427 18.5597C59.3334 19.1744 58.8575 19.6898 58.2694 20.0471C57.6365 20.3999 56.924 20.585 56.1995 20.585C55.4749 20.585 54.7624 20.3999 54.1296 20.0471C53.5403 19.6913 53.064 19.1755 52.7563 18.5597C52.4348 17.8783 52.268 17.1342 52.268 16.3808C52.268 15.6273 52.4348 14.8832 52.7563 14.2018C53.064 13.586 53.5403 13.0703 54.1296 12.7145C54.7678 12.3616 55.4851 12.1765 56.2143 12.1765C56.9436 12.1765 57.6609 12.3616 58.2991 12.7145C58.8815 13.0726 59.3508 13.5883 59.6526 14.2018C59.9809 14.8804 60.144 15.6271 60.1286 16.3808C60.144 17.1348 59.9774 17.8814 59.6427 18.5573V18.5597Z" fill="white"/>
<path d="M77.9024 11.123C77.2186 10.4675 76.4102 9.95583 75.5252 9.6183C73.6048 8.91239 71.4961 8.91239 69.5758 9.6183C68.6873 9.95374 67.8754 10.4646 67.1886 11.1205C66.5093 11.7752 65.9704 12.5613 65.6045 13.4309C65.2188 14.3642 65.0265 15.366 65.0393 16.3758C65.0263 17.3934 65.2115 18.4038 65.5847 19.3505C65.9367 20.2319 66.4657 21.0317 67.139 21.7005C67.8184 22.3707 68.6273 22.8954 69.5163 23.2424C71.4603 23.9728 73.6034 23.9728 75.5475 23.2424C76.4365 22.8954 77.2454 22.3707 77.9247 21.7005C78.598 21.0317 79.127 20.2319 79.479 19.3505C79.8522 18.4038 80.0374 17.3934 80.0244 16.3758C80.038 15.3669 79.8492 14.3655 79.4691 13.4309C79.1114 12.5619 78.578 11.7762 77.9024 11.123ZM75.9837 18.5597C75.6744 19.1744 75.1986 19.6898 74.6104 20.0471C73.9776 20.3999 73.2651 20.585 72.5405 20.585C71.816 20.585 71.1035 20.3999 70.4706 20.0471C69.8813 19.6913 69.4051 19.1755 69.0973 18.5597C68.7758 17.8783 68.6091 17.1342 68.6091 16.3808C68.6091 15.6273 68.7758 14.8832 69.0973 14.2018C69.4051 13.586 69.8813 13.0703 70.4706 12.7145C71.1088 12.3616 71.8262 12.1765 72.5554 12.1765C73.2847 12.1765 74.002 12.3616 74.6402 12.7145C75.2226 13.0726 75.6918 13.5883 75.9937 14.2018C76.3219 14.8804 76.485 15.6271 76.4696 16.3808C76.4851 17.1348 76.3184 17.8814 75.9837 18.5573V18.5597Z" fill="white"/>
<path d="M84.412 9.4126H82.1835V23.3441H85.4061V17.7517H90.4432V15.0447H85.4061V12.2981H90.6415V9.4126H85.4061H84.412Z" fill="#00A3BB"/>
<path d="M96.6132 9.4126H93.1898V23.3441H96.6132V9.4126Z" fill="#00A3BB"/>
<path d="M109.171 17.2537L99.5582 8.71631V23.3444H102.783V15.5036L112.416 24.041V9.41288H109.171V17.2537Z" fill="#00A3BB"/>
<path d="M113.869 23.3442H117.672L118.968 20.657H123.413L124.717 23.3442H128.537L121.194 8.53516L113.869 23.3442ZM122.748 18.0889H119.65L121.194 14.5267L122.748 18.0889Z" fill="#00A3BB"/>
<path d="M139.602 17.2537L129.989 8.71631V23.3444H133.214V15.5036L142.847 24.041V9.41288H139.602V17.2537Z" fill="#00A3BB"/>
<path d="M152.642 9.09297C151.59 9.08492 150.545 9.26284 149.555 9.6185C148.658 9.9345 147.838 10.4366 147.148 11.092C146.459 11.7474 145.915 12.5411 145.554 13.4212C144.813 15.3281 144.813 17.4438 145.554 19.3507C145.915 20.2308 146.459 21.0245 147.148 21.6799C147.838 22.3352 148.658 22.8374 149.555 23.1534C150.546 23.5065 151.59 23.6819 152.642 23.6715C153.504 23.6965 154.364 23.5655 155.18 23.2848C155.84 23.0355 156.457 22.6869 157.012 22.2511V18.6269C156.691 18.9594 156.338 19.26 155.958 19.5242C155.049 20.1586 153.961 20.486 152.852 20.4588C152.131 20.4673 151.418 20.3032 150.772 19.9804C150.144 19.6641 149.617 19.178 149.25 18.5773C148.852 17.9145 148.651 17.1515 148.673 16.3785C148.643 15.604 148.837 14.8372 149.231 14.1698C149.599 13.5737 150.126 13.0914 150.753 12.7766C151.398 12.4538 152.111 12.2897 152.832 12.2982C153.426 12.2889 154.017 12.3725 154.585 12.5461C155.068 12.7019 155.524 12.9301 155.939 13.2228C156.317 13.492 156.67 13.7957 156.992 14.1301V10.506C156.443 10.0727 155.832 9.72424 155.18 9.47225C154.364 9.19405 153.504 9.06556 152.642 9.09297Z" fill="#00A3BB"/>
<path d="M169 12.1791V9.4126H162.971H161.975H159.746V23.3441H161.975H162.971H169V20.5776H162.971V17.3724H168.603V14.6654H162.971V12.1791H169Z" fill="#00A3BB"/>
</svg>
