<svg width="50" height="50" viewBox="0 0 50 50" fill="none" xmlns="http://www.w3.org/2000/svg">
<path d="M8.79402 38.6669C8.09402 38.6669 7.42111 38.8416 6.82411 39.1697C3.67928 35.1383 1.95312 30.1304 1.95312 25C1.95312 12.2917 12.2917 1.95313 25 1.95313C26.545 1.95313 28.0891 2.10686 29.5898 2.41013C30.1178 2.51694 30.6335 2.17514 30.7404 1.64642C30.8472 1.11771 30.5054 0.602722 29.9767 0.495529C28.3489 0.166702 26.6747 0 25 0C18.3224 0 12.0441 2.60048 7.32231 7.32231C2.60048 12.0441 0 18.3224 0 25C0 30.6171 1.90735 36.0989 5.37987 40.4934C4.93278 41.1614 4.69246 41.9464 4.69246 42.7685C4.69246 43.8641 5.11932 44.894 5.89409 45.6684C6.66847 46.4432 7.69844 46.87 8.79402 46.87C9.8896 46.87 10.9196 46.4432 11.6943 45.6684C12.4691 44.894 12.8956 43.8637 12.8956 42.7681C12.8956 41.6729 12.4691 40.6426 11.6943 39.8682C10.9196 39.0934 9.8896 38.6669 8.79402 38.6669ZM10.313 44.2875C9.90753 44.6934 9.36775 44.9169 8.79402 44.9169C8.22029 44.9169 7.68089 44.6934 7.27501 44.2875C6.86912 43.8816 6.64558 43.3422 6.64558 42.7685C6.64558 42.1944 6.86912 41.655 7.27501 41.2491C7.68051 40.8432 8.22029 40.62 8.79402 40.62C9.36775 40.62 9.90715 40.8436 10.313 41.2491C10.7189 41.655 10.9425 42.1944 10.9425 42.7685C10.9425 43.3422 10.7189 43.8816 10.313 44.2875Z" fill="#00A3BB"/>
<path d="M44.6194 9.50551C45.681 7.91287 45.5105 5.73544 44.1063 4.33125C43.3316 3.55687 42.3016 3.13 41.206 3.13C40.1104 3.13 39.0805 3.55687 38.3057 4.33125C37.5309 5.10602 37.1045 6.13599 37.1045 7.23157C37.1045 8.32715 37.5309 9.35712 38.3057 10.1319C39.0805 10.9066 40.1104 11.3331 41.206 11.3331C41.906 11.3331 42.5789 11.1584 43.1759 10.8304C46.3208 14.8621 48.0469 19.8697 48.0469 25C48.0469 37.7083 37.7083 48.0469 25 48.0469C23.4704 48.0469 21.9407 47.8962 20.4541 47.5987C19.9254 47.493 19.4108 47.836 19.3047 48.3647C19.199 48.8938 19.542 49.408 20.0707 49.5141C21.6832 49.8364 23.3418 50 25 50C31.6777 50 37.9559 47.3996 42.6777 42.6777C47.3996 37.9559 50 31.6777 50 25C50 19.3825 48.0923 13.9004 44.6194 9.50551ZM39.687 8.75096C39.2811 8.34508 39.0576 7.80568 39.0576 7.23157C39.0576 6.65784 39.2811 6.11844 39.687 5.71256C40.0925 5.30667 40.6323 5.08313 41.206 5.08313C41.7798 5.08313 42.3195 5.30667 42.7254 5.71256C43.5627 6.55026 43.5627 7.91325 42.7254 8.75096C42.3195 9.15646 41.7798 9.38001 41.206 9.38001C40.6319 9.38001 40.0925 9.15646 39.687 8.75096Z" fill="#00A3BB"/>
<path d="M20.9702 41.7969C20.9702 42.3363 21.4077 42.7734 21.9467 42.7734H28.0529C28.5923 42.7734 29.0295 42.3363 29.0295 41.7969V39.9036C30.3135 39.558 31.5411 39.0491 32.6946 38.3846L34.0313 39.7213C34.2144 39.9044 34.4627 40.0074 34.7221 40.0074C34.9808 40.0074 35.2295 39.9044 35.4126 39.7209L39.7285 35.4019C40.1096 35.0204 40.1096 34.4021 39.7285 34.021L38.3934 32.6859C39.0579 31.5323 39.5668 30.3047 39.9124 29.0207H41.7984C42.3378 29.0207 42.775 28.5835 42.775 28.0441V21.9379C42.775 21.3985 42.3378 20.9614 41.7984 20.9614H39.912C39.5664 19.6777 39.0579 18.4502 38.3934 17.2966L39.7213 15.9687C39.9044 15.7856 40.0074 15.5369 40.0074 15.2779C40.007 15.0188 39.904 14.7701 39.7209 14.587L35.4015 10.2711C35.0204 9.88998 34.4021 9.88998 34.0206 10.2715L32.6946 11.5978C31.5411 10.9333 30.3135 10.4244 29.0295 10.0788V8.20312C29.0295 7.66373 28.5923 7.22656 28.0529 7.22656H21.9467C21.4077 7.22656 20.9702 7.66373 20.9702 8.20312V10.0792C19.6865 10.4244 18.4589 10.9333 17.3054 11.5978L15.979 10.2715C15.5979 9.89037 14.9796 9.88998 14.5981 10.2711L10.2791 14.5874C10.0956 14.7705 9.9926 15.0188 9.9926 15.2779C9.9926 15.5369 10.0956 15.7856 10.2787 15.9687L11.6066 17.2966C10.9421 18.4502 10.4332 19.6774 10.0876 20.9614H8.20503C7.66564 20.9614 7.22847 21.3985 7.22847 21.9376L7.22504 28.0437C7.22466 28.3028 7.32765 28.5515 7.51076 28.7346C7.69386 28.9177 7.9422 29.0207 8.2016 29.0207H10.0876C10.4332 30.3047 10.9421 31.5323 11.6066 32.6859L10.2715 34.021C9.89037 34.4021 9.88999 35.0204 10.2715 35.4019L14.5874 39.7209C14.7705 39.904 15.0188 40.0074 15.2779 40.0074H15.2782C15.5373 40.0074 15.7856 39.9044 15.9687 39.7213L17.305 38.3846C18.4589 39.0491 19.6865 39.558 20.9702 39.9036V41.7969ZM17.688 36.3308C17.3016 36.0809 16.7931 36.1351 16.4673 36.4605L15.2782 37.6495L12.3428 34.7118L13.5307 33.5236C13.8561 33.1982 13.9103 32.6897 13.6604 32.3032C12.775 30.933 12.1525 29.4312 11.8107 27.8389C11.7138 27.3891 11.3163 27.0676 10.8559 27.0676H9.17854L9.18083 22.9145H10.8559C11.3163 22.9145 11.7138 22.5933 11.8107 22.1432C12.1525 20.5513 12.775 19.0495 13.6604 17.6792C13.9103 17.2928 13.8561 16.7843 13.5307 16.4589L12.3505 15.2782L15.2882 12.3428L16.4673 13.5223C16.7931 13.8477 17.3012 13.9015 17.688 13.652C19.0578 12.7666 20.5597 12.1441 22.1519 11.8023C22.6017 11.7054 22.9233 11.3075 22.9233 10.8475V9.17969H27.0763V10.8471C27.0763 11.3075 27.3975 11.7054 27.8477 11.8019C29.4395 12.1441 30.9418 12.7663 32.3116 13.6517C32.6981 13.9015 33.2066 13.8477 33.532 13.522L34.7115 12.3428L37.6492 15.2782L36.4689 16.4585C36.1431 16.7843 36.0893 17.2928 36.3392 17.6792C37.2246 19.0495 37.8468 20.5513 38.1889 22.1432C38.2854 22.5933 38.6833 22.9145 39.1438 22.9145H40.8218V27.0676H39.1438C38.6833 27.0676 38.2858 27.3891 38.1889 27.8389C37.8471 29.4308 37.2246 30.933 36.3392 32.3029C36.0893 32.6897 36.1435 33.1982 36.4689 33.5236L37.6568 34.7115L34.7214 37.6492L33.5323 36.4605C33.2066 36.1347 32.6981 36.0809 32.3116 36.3308C30.9414 37.2162 29.4395 37.8384 27.8477 38.1805C27.3975 38.2774 27.0763 38.6749 27.0763 39.1354V40.8203H22.9233V39.1354C22.9233 38.6753 22.6017 38.2774 22.1519 38.1805C20.5601 37.8387 19.0582 37.2162 17.688 36.3308Z" fill="#00A3BB"/>
<path d="M33.0692 24.9999C33.0692 20.5504 29.4495 16.9307 25 16.9307C20.5506 16.9307 16.9308 20.5504 16.9308 24.9999C16.9308 29.4494 20.5506 33.0691 25 33.0691C29.4495 33.0691 33.0692 29.4494 33.0692 24.9999ZM18.8839 24.9999C18.8839 21.6273 21.6274 18.8838 25 18.8838C28.3726 18.8838 31.1161 21.6277 31.1161 24.9999C31.1161 28.3721 28.3726 31.116 25 31.116C21.6274 31.116 18.8839 28.3725 18.8839 24.9999Z" fill="#00A3BB"/>
<path d="M33.992 3.69341C34.2491 3.69341 34.5009 3.58888 34.6825 3.4073C34.864 3.22458 34.9686 2.97281 34.9686 2.7157C34.9686 2.46011 34.8644 2.20796 34.6825 2.02524C34.5009 1.84366 34.2491 1.73914 33.992 1.73914C33.7341 1.73914 33.4835 1.84366 33.3019 2.02524C33.12 2.20796 33.0154 2.45897 33.0154 2.7157C33.0154 2.97357 33.12 3.22458 33.3019 3.4073C33.4835 3.58888 33.7341 3.69341 33.992 3.69341Z" fill="#00A3BB"/>
<path d="M16.0507 46.3242C15.794 46.3242 15.5418 46.4287 15.3603 46.6103C15.1787 46.7919 15.0742 47.0441 15.0742 47.3008C15.0742 47.5587 15.1787 47.8097 15.3603 47.9912C15.5418 48.1728 15.794 48.2773 16.0507 48.2773C16.3074 48.2773 16.5596 48.1728 16.7412 47.9912C16.9228 47.8097 17.0273 47.5575 17.0273 47.3008C17.0273 47.0441 16.9228 46.7919 16.7412 46.6103C16.5596 46.4287 16.3074 46.3242 16.0507 46.3242Z" fill="#00A3BB"/>
</svg>
