<svg width="14" height="11" viewBox="0 0 14 11" fill="none" xmlns="http://www.w3.org/2000/svg">
<path d="M5.08594 7.74609C5.08594 7.17188 4.78516 6.24219 4.07422 6.24219C3.36328 6.24219 3.0625 7.17188 3.0625 7.74609C3.0625 8.32031 3.36328 9.25 4.07422 9.25C4.78516 9.25 5.08594 8.32031 5.08594 7.74609ZM13.125 6.37891C13.125 5.23047 12.7969 4.13672 12.0586 3.23438C12.1953 2.82422 12.25 2.38672 12.25 1.92188C12.25 1.34766 12.1133 1.04688 11.8672 0.5C10.6367 0.5 9.84375 0.746094 8.91406 1.48438C8.20312 1.29297 7.4375 1.21094 6.69922 1.21094C5.90625 1.21094 5.08594 1.32031 4.29297 1.48438C3.33594 0.746094 2.54297 0.5 1.3125 0.5C1.03906 1.04688 0.902344 1.34766 0.902344 1.92188C0.902344 2.38672 0.984375 2.82422 1.12109 3.26172C0.355469 4.13672 0 5.23047 0 6.37891C0 7.25391 0.136719 8.18359 0.546875 8.97656C1.61328 11.082 4.64844 11 6.69922 11C8.75 11 11.5938 11.0547 12.6328 8.97656C13.0156 8.15625 13.125 7.25391 13.125 6.37891ZM11.3477 7.74609C11.3477 10.1523 9.16016 10.5078 7.24609 10.5078H5.90625C3.99219 10.5078 1.80469 10.1523 1.80469 7.74609C1.80469 6.54297 2.54297 5.50391 3.82812 5.50391C4.34766 5.50391 4.83984 5.58594 5.35938 5.66797C5.76953 5.72266 6.15234 5.75 6.58984 5.75C7 5.75 7.41016 5.72266 7.82031 5.66797C8.33984 5.58594 8.83203 5.50391 9.35156 5.50391C10.6367 5.50391 11.3477 6.54297 11.3477 7.74609ZM9.10547 6.24219C8.39453 6.24219 8.09375 7.17188 8.09375 7.74609C8.09375 8.32031 8.39453 9.25 9.10547 9.25C9.78906 9.25 10.0898 8.32031 10.0898 7.74609C10.0898 7.17188 9.78906 6.24219 9.10547 6.24219Z" fill="#232A41"/>
</svg>
