<svg width="50" height="46" viewBox="0 0 50 46" fill="none" xmlns="http://www.w3.org/2000/svg">
<path d="M25 23C25.1229 23 25.2437 22.9808 25.3604 22.9405L45.1521 16.2322C45.5625 16.0942 45.8333 15.7339 45.8333 15.3333C45.8333 14.9327 45.5604 14.5724 45.15 14.4344L31.6083 9.85353C31.0708 9.67337 30.4687 9.92637 30.2708 10.4228C30.0729 10.9192 30.35 11.4693 30.8895 11.6533L41.775 15.3333L25 21.02L8.22493 15.3333L19.1104 11.6514C19.6499 11.4693 19.927 10.9173 19.7291 10.4209C19.5312 9.92445 18.9312 9.67145 18.3916 9.85162L4.84993 14.4325C4.43951 14.5724 4.1666 14.9327 4.1666 15.3333C4.1666 15.7339 4.43743 16.0942 4.84785 16.2322L24.6395 22.9405C24.7562 22.9808 24.877 23 25 23Z" fill="#00A3BB"/>
<path d="M25.0001 46C25.123 46 25.2438 45.9808 25.3584 45.9406L36.4209 42.2031C36.9605 42.021 37.2376 41.4709 37.0397 40.9726C36.8417 40.4762 36.2417 40.2212 35.7022 40.4033L25.0001 44.0201L14.2959 40.4033C13.7563 40.2193 13.1584 40.4762 12.9584 40.9726C12.7605 41.469 13.0375 42.0191 13.5771 42.2031L24.6396 45.9406C24.7563 45.9808 24.8771 46 25.0001 46Z" fill="#00A3BB"/>
<path d="M44.7916 34.04C45.3666 34.04 45.8333 33.6107 45.8333 33.0817V15.3333C45.8333 14.8043 45.3666 14.375 44.7916 14.375C44.2166 14.375 43.75 14.8043 43.75 15.3333V33.0817C43.75 33.6107 44.2166 34.04 44.7916 34.04Z" fill="#00A3BB"/>
<path d="M5.20833 34.04C5.78333 34.04 6.25 33.6107 6.25 33.0817V15.3333C6.25 14.8043 5.78333 14.375 5.20833 14.375C4.63333 14.375 4.16666 14.8043 4.16666 15.3333V33.0817C4.16666 33.6107 4.63333 34.04 5.20833 34.04Z" fill="#00A3BB"/>
<path d="M25.0001 15.3333C25.5751 15.3333 26.0417 14.904 26.0417 14.375V6.70833C26.0417 6.17933 25.5751 5.75 25.0001 5.75C24.4251 5.75 23.9584 6.17933 23.9584 6.70833V14.375C23.9584 14.904 24.4251 15.3333 25.0001 15.3333Z" fill="#00A3BB"/>
<path d="M6.37496 41.0934C6.64162 41.0934 6.90829 40.9995 7.11246 40.8135L12.1958 36.1369C12.6021 35.7631 12.6021 35.1555 12.1958 34.7818C11.7895 34.408 11.1291 34.408 10.7229 34.7818L5.63954 39.4585C5.23329 39.8322 5.23329 40.4398 5.63954 40.8135C5.84163 40.9995 6.10829 41.0934 6.37496 41.0934Z" fill="#00A3BB"/>
<path d="M43.6251 41.0934C43.8918 41.0934 44.1584 40.9995 44.3626 40.8135C44.7689 40.4398 44.7689 39.8322 44.3626 39.4585L39.2793 34.7818C38.873 34.408 38.2126 34.408 37.8064 34.7818C37.4001 35.1555 37.4001 35.7631 37.8064 36.1369L42.8897 40.8135C43.0918 40.9995 43.3584 41.0934 43.6251 41.0934Z" fill="#00A3BB"/>
<path d="M25.0001 46.0001C25.5751 46.0001 26.0417 45.5707 26.0417 45.0417V22.0417C26.0417 21.5127 25.5751 21.0834 25.0001 21.0834C24.4251 21.0834 23.9584 21.5127 23.9584 22.0417V45.0417C23.9584 45.5707 24.4251 46.0001 25.0001 46.0001Z" fill="#00A3BB"/>
<path d="M25.0001 7.66668C27.298 7.66668 29.1667 5.94742 29.1667 3.83334C29.1667 1.71925 27.298 0 25.0001 0C22.7022 0 20.8334 1.71925 20.8334 3.83334C20.8334 5.94742 22.7022 7.66668 25.0001 7.66668ZM25.0001 1.91667C26.148 1.91667 27.0834 2.77725 27.0834 3.83334C27.0834 4.88942 26.148 5.75001 25.0001 5.75001C23.8522 5.75001 22.9167 4.88942 22.9167 3.83334C22.9167 2.77725 23.8522 1.91667 25.0001 1.91667Z" fill="#00A3BB"/>
<path d="M4.16664 46.0001C6.46456 46.0001 8.33331 44.2808 8.33331 42.1667C8.33331 40.0526 6.46456 38.3334 4.16664 38.3334C1.86872 38.3334 -3.05176e-05 40.0526 -3.05176e-05 42.1667C-3.05176e-05 44.2808 1.86872 46.0001 4.16664 46.0001ZM4.16664 40.25C5.31456 40.25 6.24998 41.1106 6.24998 42.1667C6.24998 43.2228 5.31456 44.0834 4.16664 44.0834C3.01872 44.0834 2.08331 43.2228 2.08331 42.1667C2.08331 41.1106 3.01872 40.25 4.16664 40.25Z" fill="#00A3BB"/>
<path d="M45.8334 46.0001C48.1313 46.0001 50.0001 44.2808 50.0001 42.1667C50.0001 40.0526 48.1313 38.3334 45.8334 38.3334C43.5355 38.3334 41.6667 40.0526 41.6667 42.1667C41.6667 44.2808 43.5355 46.0001 45.8334 46.0001ZM45.8334 40.25C46.9813 40.25 47.9167 41.1106 47.9167 42.1667C47.9167 43.2228 46.9813 44.0834 45.8334 44.0834C44.6855 44.0834 43.7501 43.2228 43.7501 42.1667C43.7501 41.1106 44.6855 40.25 45.8334 40.25Z" fill="#00A3BB"/>
</svg>
