<svg width="50" height="50" viewBox="0 0 50 50" fill="none" xmlns="http://www.w3.org/2000/svg">
<path d="M4.03226 12.9032H12.0968C12.0968 10.2347 14.2669 8.06452 16.9355 8.06452C19.604 8.06452 21.7742 10.2347 21.7742 12.9032H32.2734C31.2565 11.5532 30.6452 9.88145 30.6452 8.06452C30.6452 3.61774 34.2629 0 38.7097 0C43.1565 0 46.7742 3.61774 46.7742 8.06452C46.7742 9.88145 46.1629 11.5532 45.146 12.9032H45.9677C48.1911 12.9032 50 14.7121 50 16.9355V41.129C50 43.3524 48.1911 45.1613 45.9677 45.1613H37.0968V48.3871H40.3226V50H37.0968H12.9032H9.67742V48.3871H12.9032V45.1613H4.03226C1.80887 45.1613 0 43.3524 0 41.129V16.9355C0 14.7121 1.80887 12.9032 4.03226 12.9032ZM16.9355 9.67742C15.1565 9.67742 13.7097 11.1242 13.7097 12.9032C13.7097 14.6823 15.1565 16.129 16.9355 16.129C18.7145 16.129 20.1613 14.6823 20.1613 12.9032C20.1613 11.1242 18.7145 9.67742 16.9355 9.67742ZM21.4919 14.5161C21.271 15.1379 20.9274 15.7008 20.4887 16.1766L27.2161 23.5766C28.2105 22.95 29.3847 22.5806 30.6452 22.5806C31.354 22.5806 32.0339 22.7 32.6726 22.9121L35.4 15.4105C34.8548 15.1637 34.3435 14.8573 33.871 14.5008V14.5161H21.4919ZM25.8065 29.0323C25.8065 31.7008 27.9766 33.871 30.6452 33.871C33.3137 33.871 35.4839 31.7008 35.4839 29.0323C35.4839 26.3637 33.3137 24.1935 30.6452 24.1935C27.9766 24.1935 25.8065 26.3637 25.8065 29.0323ZM45.1613 8.06452C45.1613 4.50726 42.2669 1.6129 38.7097 1.6129C35.1524 1.6129 32.2581 4.50726 32.2581 8.06452C32.2581 11.6218 35.1524 14.5161 38.7097 14.5161C42.2669 14.5161 45.1613 11.6218 45.1613 8.06452ZM14.5161 48.3871H35.4839V45.1613H14.5161V48.3871ZM1.6129 41.129C1.6129 42.4629 2.69839 43.5484 4.03226 43.5484H12.9032H37.0968H45.9677C47.3016 43.5484 48.3871 42.4629 48.3871 41.129V40.3226H1.6129V41.129ZM1.6129 38.7097H48.3871V16.9355C48.3871 15.6016 47.3016 14.5161 45.9677 14.5161H43.5484V14.5008C42.1984 15.5177 40.5266 16.129 38.7097 16.129C38.0976 16.129 37.5032 16.054 36.9298 15.9242L34.1339 23.6129C35.9137 24.7629 37.0968 26.7605 37.0968 29.0323C37.0968 32.5895 34.2024 35.4839 30.6452 35.4839C27.0879 35.4839 24.1935 32.5895 24.1935 29.0323C24.1935 27.3161 24.871 25.7589 25.9677 24.6016L19.2121 17.1702C18.5331 17.5347 17.7581 17.7419 16.9355 17.7419C15.8597 17.7419 14.8685 17.3847 14.0645 16.7895L9.24839 21.004C9.51371 21.4718 9.67742 22.0048 9.67742 22.5806C9.67742 24.3597 8.23064 25.8065 6.45161 25.8065C4.67258 25.8065 3.22581 24.3597 3.22581 22.5806C3.22581 20.8016 4.67258 19.3548 6.45161 19.3548C7.06855 19.3548 7.63952 19.5379 8.12984 19.8387L12.9411 15.629C12.7073 15.2871 12.5202 14.9129 12.379 14.5161H4.03226C2.69839 14.5161 1.6129 15.6016 1.6129 16.9355V38.7097ZM8.06451 22.5806C8.06451 21.6911 7.34113 20.9677 6.45161 20.9677C5.5621 20.9677 4.83871 21.6911 4.83871 22.5806C4.83871 23.4702 5.5621 24.1935 6.45161 24.1935C7.34113 24.1935 8.06451 23.4702 8.06451 22.5806Z" fill="#00A3BB"/>
</svg>
