<svg width="48" height="50" viewBox="0 0 48 50" fill="none" xmlns="http://www.w3.org/2000/svg">
<path d="M46.2766 47.9531H44.1388V16.9138C44.1388 15.469 42.9634 14.2937 41.5188 14.2937H36.7406C35.2959 14.2937 34.1205 15.4691 34.1205 16.9138V47.9531H28.6925V30.977C28.6925 29.5323 27.5171 28.3569 26.0724 28.3569H21.2942C19.8495 28.3569 18.6742 29.5324 18.6742 30.977V47.9531H13.2461V39.1613C13.2461 37.7166 12.0706 36.5412 10.626 36.5412H5.84775C4.40302 36.5412 3.22768 37.7167 3.22768 39.1613V47.9531H0.974658C0.436354 47.9531 0 48.3895 0 48.9278C0 49.4661 0.436354 49.9024 0.974658 49.9024H46.2766C46.8149 49.9024 47.2512 49.4661 47.2512 48.9278C47.2512 48.3895 46.8149 47.9531 46.2766 47.9531ZM11.2966 47.9531H5.1769V39.1613C5.1769 38.7914 5.47777 38.4906 5.84765 38.4906H10.6258C10.9957 38.4906 11.2966 38.7914 11.2966 39.1613V47.9531ZM26.743 47.9531H20.6234V30.977C20.6234 30.6071 20.9242 30.3063 21.2941 30.3063H26.0723C26.4421 30.3063 26.743 30.6071 26.743 30.977V47.9531ZM42.1895 47.9531H36.0698V16.9138C36.0698 16.5439 36.3707 16.243 36.7406 16.243H41.5188C41.8886 16.243 42.1895 16.5439 42.1895 16.9138V47.9531Z" fill="#00A3BB"/>
<path d="M44.1365 1.02495C44.1502 0.758966 44.0566 0.488498 43.8535 0.28538C43.6503 0.0822611 43.3799 -0.0114035 43.1139 0.00233918C43.0982 0.00165692 43.0827 0 43.0667 0H37.17C36.6317 0 36.1954 0.436354 36.1954 0.974658C36.1954 1.51296 36.6317 1.94932 37.17 1.94932H40.8111L31.1759 11.5846L27.5424 7.95106C27.3596 7.76831 27.1117 7.66559 26.8532 7.66559C26.5947 7.66559 26.3468 7.76831 26.164 7.95106L8.64269 25.4725C8.26209 25.8531 8.26209 26.4702 8.64269 26.8509C8.83304 27.0411 9.08246 27.1362 9.33187 27.1362C9.58129 27.1362 9.8308 27.0411 10.0211 26.8507L26.8532 10.0185L30.4867 13.652C30.8673 14.0326 31.4845 14.0326 31.8652 13.652L42.1895 3.32777V6.62309C42.1895 7.1614 42.6259 7.59775 43.1642 7.59775C43.7025 7.59775 44.1388 7.1614 44.1388 6.62309V1.07212C44.1388 1.05624 44.1372 1.04074 44.1365 1.02495Z" fill="#00A3BB"/>
<path d="M6.04668 30.5372C6.58497 30.5372 7.02134 30.1008 7.02134 29.5625C7.02134 29.0243 6.58497 28.5879 6.04668 28.5879C5.50839 28.5879 5.07202 29.0243 5.07202 29.5625C5.07202 30.1008 5.50839 30.5372 6.04668 30.5372Z" fill="#00A3BB"/>
</svg>
