<svg width="203" height="37" viewBox="0 0 203 37" fill="none" xmlns="http://www.w3.org/2000/svg">
<path d="M28.6202 16.4619L29.6224 18.2112L30.6245 19.9605L28.5995 23.4473L26.5922 19.9487L28.6202 16.4619Z" fill="white"/>
<path d="M32.6733 9.48828L38.5735 19.7766L28.8812 36.4513L21.0538 36.4305L19.0347 36.4246L17.0186 36.4187L19.0436 32.929L24.5643 23.4353L26.5715 26.9368L23.0789 32.9438L26.874 32.9527L34.5412 19.7677L30.6483 12.978L32.6733 9.48828Z" fill="white"/>
<path d="M29.7797 9.16508L32.4985 4.48347L33.5481 5.06755L33.2575 3.18483L32.8306 0.454137V0.451172L32.8276 0.454137L30.1444 1.58674L28.5285 2.27163L29.4476 2.78457L27.7724 5.66647L25.7474 9.15618L11.9368 32.9082H11.6225L4.03526 19.6728L11.6996 6.48479L20.0636 6.50851L10.2231 23.4441L12.2273 26.9427L24.0989 6.52333L26.1239 3.03362L22.0916 3.02472L9.69233 2.98618L0 19.6609L9.59449 36.392H9.91173L13.947 36.4068L15.9691 32.92L27.7517 12.6548L29.7797 9.16508Z" fill="white"/>
<path d="M52.4465 12.7321C50.9694 12.0178 49.3429 11.6671 47.7027 11.7092H41.758V28.3721H47.7086C49.3488 28.4141 50.9753 28.0634 52.4525 27.3492C53.7428 26.7059 54.8175 25.7002 55.5449 24.4554C56.2985 23.1087 56.6735 21.5832 56.63 20.0406C56.6728 18.4929 56.2935 16.9627 55.533 15.614C54.8044 14.3752 53.7323 13.3741 52.4465 12.7321ZM52.0641 22.3147C51.8255 22.8824 51.4544 23.3846 50.9819 23.7794C50.519 24.1487 49.9836 24.4164 49.4105 24.5651C48.8086 24.7236 48.1887 24.8033 47.5663 24.8023H45.9V15.279H47.5663C48.1887 15.278 48.8086 15.3577 49.4105 15.5162C49.9836 15.6648 50.519 15.9325 50.9819 16.3019C51.4544 16.6966 51.8255 17.1989 52.0641 17.7665C52.3581 18.4877 52.4995 19.262 52.4792 20.0406C52.4995 20.8192 52.3581 21.5935 52.0641 22.3147Z" fill="white"/>
<path d="M73.6309 13.755C72.813 12.9709 71.8461 12.359 70.7875 11.9552C68.4907 11.1109 65.9685 11.1109 63.6717 11.9552C62.609 12.3565 61.638 12.9675 60.8165 13.752C60.0041 14.5351 59.3595 15.4752 58.9219 16.5153C58.4605 17.6316 58.2305 18.8299 58.2459 20.0376C58.2303 21.2547 58.4518 22.4632 58.8982 23.5955C59.3192 24.6497 59.9519 25.6063 60.7572 26.4063C61.5698 27.2079 62.5373 27.8354 63.6005 28.2505C65.9257 29.124 68.489 29.124 70.8142 28.2505C71.878 27.8347 72.8463 27.2073 73.6605 26.4063C74.4641 25.6055 75.0957 24.649 75.5166 23.5955C75.9638 22.4633 76.1864 21.2549 76.1718 20.0376C76.1871 18.8307 75.9603 17.633 75.5047 16.5153C75.0769 15.4759 74.4389 14.5362 73.6309 13.755ZM71.336 22.6497C70.966 23.3849 70.3969 24.0014 69.6934 24.4287C68.9365 24.8506 68.0843 25.0721 67.2177 25.0721C66.3512 25.0721 65.499 24.8506 64.742 24.4287C64.0372 24.0031 63.4676 23.3862 63.0995 22.6497C62.7149 21.8347 62.5155 20.9447 62.5155 20.0436C62.5155 19.1424 62.7149 18.2524 63.0995 17.4374C63.4676 16.7009 64.0372 16.084 64.742 15.6584C65.5053 15.2364 66.3633 15.015 67.2355 15.015C68.1078 15.015 68.9657 15.2364 69.729 15.6584C70.4257 16.0868 70.9869 16.7036 71.3479 17.4374C71.7405 18.2491 71.9356 19.1421 71.9171 20.0436C71.9357 20.9454 71.7363 21.8384 71.336 22.6468V22.6497Z" fill="white"/>
<path d="M93.1757 13.755C92.3578 12.9709 91.391 12.359 90.3324 11.9552C88.0356 11.1109 85.5134 11.1109 83.2166 11.9552C82.1539 12.3565 81.1828 12.9675 80.3613 13.752C79.549 14.5351 78.9044 15.4752 78.4667 16.5153C78.0054 17.6316 77.7754 18.8299 77.7907 20.0376C77.7752 21.2547 77.9967 22.4632 78.443 23.5955C78.864 24.6497 79.4967 25.6063 80.302 26.4063C81.1146 27.2079 82.0821 27.8354 83.1454 28.2505C85.4706 29.124 88.0338 29.124 90.3591 28.2505C91.4223 27.8354 92.3898 27.2079 93.2024 26.4063C94.0077 25.6063 94.6404 24.6497 95.0614 23.5955C95.5077 22.4632 95.7293 21.2547 95.7137 20.0376C95.73 18.8309 95.5041 17.6332 95.0496 16.5153C94.6217 15.4759 93.9838 14.5362 93.1757 13.755ZM90.8809 22.6497C90.5109 23.3849 89.9417 24.0014 89.2383 24.4287C88.4814 24.8506 87.6292 25.0721 86.7626 25.0721C85.896 25.0721 85.0438 24.8506 84.2869 24.4287C83.582 24.0031 83.0124 23.3862 82.6443 22.6497C82.2598 21.8347 82.0604 20.9447 82.0604 20.0436C82.0604 19.1424 82.2598 18.2524 82.6443 17.4374C83.0124 16.7009 83.582 16.084 84.2869 15.6584C85.0502 15.2364 85.9082 15.015 86.7804 15.015C87.6526 15.015 88.5106 15.2364 89.2739 15.6584C89.9705 16.0868 90.5317 16.7036 90.8927 17.4374C91.2854 18.2491 91.4804 19.1421 91.462 20.0436C91.4805 20.9454 91.2812 21.8384 90.8809 22.6468V22.6497Z" fill="white"/>
<path d="M100.962 11.7092H98.2961V28.3721H102.15V21.6832H108.175V18.4455H102.15V15.1604H108.412V11.7092H102.15H100.962Z" fill="white"/>
<path d="M115.555 11.7092H111.46V28.3721H115.555V11.7092Z" fill="white"/>
<path d="M130.575 21.0874L119.077 10.8762V28.3722H122.935V18.9942L134.456 29.2054V11.7094H130.575V21.0874Z" fill="white"/>
<path d="M136.194 28.3721H140.742L142.292 25.1581H147.609L149.168 28.3721H153.737L144.955 10.6597L136.194 28.3721ZM146.814 22.0865H143.108L144.955 17.8259L146.814 22.0865Z" fill="white"/>
<path d="M166.972 21.0874L155.474 10.8762V28.3722H159.332V18.9942L170.854 29.2054V11.7094H166.972V21.0874Z" fill="white"/>
<path d="M182.568 11.3268C181.31 11.3172 180.06 11.53 178.877 11.9554C177.803 12.3334 176.822 12.9339 175.998 13.7178C175.173 14.5016 174.523 15.451 174.091 16.5036C173.204 18.7844 173.204 21.3148 174.091 23.5957C174.523 24.6483 175.173 25.5976 175.998 26.3815C176.822 27.1653 177.803 27.7659 178.877 28.1439C180.061 28.5662 181.311 28.776 182.568 28.7635C183.6 28.7935 184.628 28.6368 185.604 28.301C186.393 28.0029 187.132 27.586 187.795 27.0646V22.7299C187.411 23.1277 186.989 23.4872 186.535 23.8032C185.447 24.562 184.146 24.9536 182.82 24.921C181.957 24.9311 181.104 24.7349 180.332 24.3488C179.581 23.9705 178.95 23.3891 178.512 22.6706C178.035 21.8779 177.796 20.9653 177.821 20.0407C177.785 19.1144 178.017 18.1973 178.488 17.399C178.929 16.686 179.559 16.1092 180.309 15.7327C181.08 15.3465 181.933 15.1503 182.796 15.1605C183.506 15.1493 184.213 15.2493 184.892 15.457C185.47 15.6433 186.016 15.9163 186.511 16.2664C186.964 16.5883 187.386 16.9516 187.771 17.3516V13.0168C187.115 12.4986 186.384 12.0819 185.604 11.7805C184.627 11.4477 183.599 11.2941 182.568 11.3268Z" fill="white"/>
<path d="M202.134 15.0181V11.7092H194.923H193.731H191.065V28.3721H193.731H194.923H202.134V25.0632H194.923V21.2296H201.659V17.9919H194.923V15.0181H202.134Z" fill="white"/>
</svg>
