<svg width="57" height="140" viewBox="0 0 57 140" fill="none" xmlns="http://www.w3.org/2000/svg">
<g style="mix-blend-mode:multiply" opacity="0.15">
<path d="M11.9161 114.144C1.67151 120.061 1.67151 129.651 11.9161 135.564C22.1607 141.477 38.771 141.48 49.0156 135.564C59.2602 129.647 59.2602 120.061 49.0156 114.144C38.771 108.228 22.1607 108.228 11.9161 114.144Z" fill="#6B99D1"/>
</g>
<path d="M51.8262 113.406L51.4604 112.729H50.9599C50.2843 112.217 49.5758 111.75 48.8391 111.33C38.6876 105.475 22.241 105.475 12.0894 111.33C11.3495 111.756 10.6339 112.223 9.94616 112.729H9.46489L9.09912 113.416C7.37939 116.599 4.49177 120.898 4.49177 121.922C4.47573 125.772 7.01363 129.622 12.0958 132.558C22.2474 138.416 38.694 138.416 48.8455 132.558C53.9021 129.622 56.4496 125.772 56.4496 121.941C56.4496 120.699 54.0208 116.329 51.8262 113.406Z" fill="url(#paint0_linear)"/>
<path d="M48.7687 106.816C47.7445 105.775 46.5804 104.88 45.31 104.159C37.1092 99.427 23.8133 99.427 15.6157 104.159C14.3443 104.88 13.1792 105.775 12.1537 106.816H9.46826V112.732C9.46826 115.835 11.5185 118.938 15.6189 121.302C23.8197 126.038 37.1156 126.038 45.3132 121.302C49.4136 118.938 51.4606 115.848 51.4606 112.732V106.816H48.7687Z" fill="url(#paint1_linear)"/>
<path d="M15.6189 98.9778C7.41806 103.713 7.41806 111.388 15.6189 116.121C23.8197 120.853 37.1156 120.856 45.3132 116.121C53.5108 111.385 53.5108 103.713 45.3132 98.9778C37.1156 94.2421 23.8197 94.2453 15.6189 98.9778Z" fill="#DCEEFF"/>
<path d="M30.4803 95.7501C36.0341 95.7501 41.2511 96.995 45.1686 99.257C49.0188 101.487 51.1556 104.432 51.1556 107.551C51.1556 110.669 49.0284 113.615 45.1686 115.845C41.2351 118.107 36.0181 119.355 30.4803 119.355C24.9425 119.355 19.7127 118.11 15.7952 115.848C11.945 113.618 9.80498 110.673 9.80498 107.554C9.80498 104.435 11.9322 101.49 15.7952 99.2602C19.7127 96.9982 24.9297 95.7533 30.4803 95.7533V95.7501ZM30.4803 95.4325C25.1093 95.4325 19.7352 96.6132 15.6348 98.9811C7.43392 103.717 7.43392 111.391 15.6348 116.124C19.7191 118.488 25.0933 119.676 30.4803 119.676C35.8673 119.676 41.2286 118.492 45.3291 116.124C53.5267 111.391 53.5267 103.717 45.3291 98.9811C41.2286 96.6132 35.8545 95.4325 30.4803 95.4325Z" fill="white"/>
<path opacity="0.3" d="M9.46484 107.548C9.46484 110.647 11.5215 113.753 15.6155 116.117C23.8195 120.853 37.1122 120.853 45.313 116.117C49.407 113.753 51.4604 110.647 51.4604 107.548V0H9.46805L9.46484 107.548Z" fill="url(#paint2_linear)"/>
<path opacity="0.5" d="M8.91952 83.5611C7.05706 82.5174 5.35057 81.217 3.85015 79.6981C1.34435 77.1025 0.0545438 74.2149 0 71.3273V88.4701C0.08342 92.901 3.06087 97.3222 8.91952 100.704C12.529 102.786 16.822 104.233 21.3812 105.055V87.9118C16.822 87.1001 12.529 85.6466 8.91952 83.5611Z" fill="#59C09D"/>
<path opacity="0.5" d="M47.6519 91.5406C49.5122 90.4952 51.2165 89.1937 52.7149 87.6744C55.2271 85.0788 56.5137 82.1911 56.565 79.3035V96.4463C56.4848 100.877 53.5041 105.302 47.6487 108.683C44.0392 110.766 39.7431 112.213 35.1838 113.031V95.8881C39.7463 95.0763 44.0424 93.6229 47.6519 91.5406Z" fill="#59C09D"/>
<path opacity="0.5" d="M39.8298 78.4276V99.3147C33.8113 100.443 27.6386 100.474 21.6089 99.4077C17.1684 98.612 12.9846 97.1971 9.4649 95.1662C8.60033 94.6713 7.76769 94.1227 6.97192 93.5234V72.6428C7.76937 73.2377 8.60186 73.7841 9.4649 74.2791C12.9942 76.3164 17.1652 77.725 21.6089 78.5175C27.6385 79.5835 33.811 79.553 39.8298 78.4276Z" fill="#59C09D"/>
<path opacity="0.7" d="M24.0024 82.804V91.0176C27.5938 91.4765 31.2239 91.5507 34.831 91.239V83.0221C31.224 83.3349 27.5939 83.2618 24.0024 82.804Z" fill="#80C3ED"/>
<path opacity="0.5" d="M52.1471 58.8271C51.5333 59.4574 50.8702 60.0379 50.1643 60.5629C49.744 60.8838 49.298 61.1854 48.8296 61.4773C48.5665 61.6506 48.3002 61.7982 48.0178 61.9714C44.9918 63.6609 41.7068 64.8372 38.2962 65.4526C36.5542 65.7839 34.7921 65.9983 33.0215 66.0943V85.374C34.7921 85.278 36.5542 85.0636 38.2962 84.7323C41.7065 84.126 44.992 82.956 48.0178 81.2703C48.7587 80.8408 49.4753 80.3706 50.1643 79.8618C50.8697 79.3326 51.5327 78.749 52.1471 78.1164C53.8572 76.3518 54.8615 74.4331 55.1823 72.4791V53.1899C54.8647 55.147 53.8572 57.0657 52.1471 58.8271Z" fill="#59C09D"/>
<g opacity="0.7">
<path opacity="0.5" d="M43.5035 68.3659V79.3966C42.6629 79.6982 41.803 79.9613 40.9175 80.1987V69.1712C41.803 68.9338 42.6725 68.6611 43.5035 68.3659Z" fill="#80C3ED"/>
<path opacity="0.5" d="M48.4637 66.0366V77.0672C48.3193 77.1571 48.1717 77.2501 48.0177 77.3303C47.3236 77.7323 46.6093 78.0986 45.8777 78.4276V67.3969C46.6092 67.069 47.3235 66.7038 48.0177 66.3029C48.1717 66.2194 48.3193 66.1296 48.4637 66.0366Z" fill="#80C3ED"/>
<path opacity="0.5" d="M53.4177 61.6345V72.662C53.033 73.2048 52.6037 73.7145 52.1343 74.186C51.7186 74.6123 51.2795 75.0151 50.8188 75.3924V64.3649C51.2787 63.9867 51.7178 63.584 52.1343 63.1585C52.6029 62.6863 53.0321 62.1766 53.4177 61.6345Z" fill="#80C3ED"/>
</g>
<path opacity="0.5" d="M37.2342 49.1504V71.3818C35.8393 71.6118 34.433 71.7671 33.0215 71.8471C29.6951 72.0499 26.3563 71.8571 23.0753 71.2728C22.5106 71.1733 21.9523 71.0546 21.394 70.9262V48.6948C21.9523 48.8232 22.5106 48.9419 23.0753 49.0413C26.3563 49.6257 29.6951 49.8185 33.0215 49.6157C34.433 49.5357 35.8393 49.3804 37.2342 49.1504Z" fill="#59C09D"/>
<path opacity="0.5" d="M51.8101 35.9348V54.0177C50.7331 53.0836 49.5671 52.2572 48.329 51.5504C43.3751 48.7012 36.971 47.1836 30.4739 47.0296V29.8708C37.3624 29.8708 44.235 31.3884 49.4872 34.4108C50.2914 34.8717 51.0671 35.3806 51.8101 35.9348Z" fill="#59C09D"/>
<path opacity="0.5" d="M22.4335 38.7775C21.8207 38.678 21.2175 38.5433 20.6144 38.4085C18.1513 37.8853 15.7562 37.0822 13.4755 36.015C12.7697 35.6942 12.1023 35.3444 11.4446 34.9723C11.143 34.7894 10.8414 34.6161 10.5655 34.4332C10.2895 34.2504 10.0168 34.0899 9.7505 33.9071C9.558 33.7691 9.36549 33.6343 9.17298 33.4867C9.16296 33.4856 9.15346 33.4817 9.14553 33.4754C9.1376 33.4692 9.13155 33.4609 9.12806 33.4515C8.35389 32.8863 7.62741 32.2585 6.95593 31.5745C4.71643 29.2869 3.57742 26.7426 3.5293 24.1918L3.58384 43.6351V44.0105C3.63518 46.5773 4.77418 49.1055 6.99443 51.39C7.66329 52.0724 8.38769 52.698 9.16015 53.2605C9.16015 53.2797 9.18902 53.3054 9.20506 53.3054C9.64462 53.6263 10.0938 53.9471 10.5975 54.2679C10.8735 54.4412 11.1751 54.6241 11.4767 54.7973C12.1183 55.1695 12.8017 55.5225 13.5076 55.8433C15.7925 56.9103 18.192 57.7123 20.6593 58.2336C21.2625 58.378 21.8657 58.5063 22.4785 58.6122C23.8966 58.8657 25.3404 59.0421 26.7938 59.1576L26.7393 39.339C25.2955 39.2171 23.8517 39.031 22.4335 38.7775Z" fill="#59C09D"/>
<path opacity="0.7" d="M11.8969 38.2865C9.89806 37.4972 7.5623 39.387 7.66176 41.6939C7.76122 44.0008 8.15907 46.8595 11.7173 48.9033C15.6444 51.1492 17.4636 48.098 17.3192 45.3997C17.1588 42.4479 15.4006 39.6694 11.8969 38.2865Z" fill="#80C3ED"/>
<defs>
<linearGradient id="paint0_linear" x1="4.48536" y1="121.941" x2="56.4496" y2="121.941" gradientUnits="userSpaceOnUse">
<stop stop-color="#6B99D1"/>
<stop offset="0.02" stop-color="#6E9BD3"/>
<stop offset="0.24" stop-color="#86B0E4"/>
<stop offset="0.46" stop-color="#97BFF0"/>
<stop offset="0.71" stop-color="#A2C8F8"/>
<stop offset="1" stop-color="#A5CBFA"/>
</linearGradient>
<linearGradient id="paint1_linear" x1="9.46826" y1="112.732" x2="51.4606" y2="112.732" gradientUnits="userSpaceOnUse">
<stop stop-color="#A5CBFA"/>
<stop offset="0.36" stop-color="#A8CDFA"/>
<stop offset="0.67" stop-color="#B3D4FC"/>
<stop offset="0.95" stop-color="#C4DFFE"/>
<stop offset="1" stop-color="#C8E2FF"/>
</linearGradient>
<linearGradient id="paint2_linear" x1="30.4642" y1="119.425" x2="30.4642" y2="-0.721905" gradientUnits="userSpaceOnUse">
<stop stop-color="#0D88D6"/>
<stop offset="0.69" stop-color="#0D88D6" stop-opacity="0.29"/>
<stop offset="1" stop-color="#0D88D6" stop-opacity="0"/>
</linearGradient>
</defs>
</svg>
