<svg width="100" height="142" viewBox="0 0 100 142" fill="none" xmlns="http://www.w3.org/2000/svg">
<path d="M39.3689 38.6826C38.5468 38.7424 37.8128 38.4841 36.6631 38.6574C35.7975 38.8238 34.9115 38.8568 34.036 38.755C33.091 38.6385 30.4891 36.6603 28.3943 34.7986C25.9216 32.5936 23.6694 29.2798 23.0394 27.5536C21.9369 24.621 20.239 18.573 19.4452 16.5476C18.6514 14.5221 17.593 14.1378 16.3299 13.9457C14.8431 13.7378 13.8855 14.3268 14.6667 17.3697C15.4479 20.4126 17.1552 26.218 19.2436 29.9697C20.8383 32.7524 22.8818 35.2525 25.2916 37.369C27.4966 39.3504 29.5535 40.519 32.1523 41.9397C32.861 42.3303 33.2894 42.7965 34.5526 43.7005C35.8157 44.6046 37.4915 45.3448 38.7862 45.4645C40.0808 45.5842 40.5659 45.4204 40.7045 45.1716C40.8778 44.8566 40.6541 44.5982 40.0745 44.4754C39.1321 44.3505 38.2198 44.057 37.3813 43.6092C37.3813 43.6092 38.6413 43.9399 39.4225 44.0722C40.1122 44.1904 40.8147 44.2148 41.5109 44.1446C42.1819 44.0659 42.6544 43.1839 42.0716 43.0453C41.4889 42.9067 40.9912 42.9603 39.8477 42.7492C39.2393 42.6425 38.6459 42.4627 38.0806 42.2137C38.8526 42.3093 39.631 42.343 40.4084 42.3145C41.4857 42.2515 41.9141 41.9995 42.1913 41.8263C42.4685 41.653 42.5756 41.0577 41.8259 40.9821C41.1518 40.9159 40.2698 41.1207 38.9909 40.7962C38.0711 40.5568 37.4537 40.2639 37.6112 40.1662C37.7687 40.0686 38.3011 40.2355 39.1075 40.0497C39.9139 39.8638 40.5313 39.2401 40.399 38.8149C40.2667 38.3896 40.1753 38.6259 39.3689 38.6826Z" fill="#FFA8A7"/>
<path d="M20.0438 17.6028C19.5366 15.9333 19.146 15.1396 18.1538 14.434C17.6163 14.0308 16.964 13.81 16.2921 13.804L14.1312 23.3579L16.2921 28.2561C19.691 29.1255 22.5197 25.5188 22.5197 25.5188C22.5197 25.5188 20.5068 19.1463 20.0438 17.6028Z" fill="#E4F2F2"/>
<path d="M8.6596 89.1423C8.52228 89.6385 8.35395 90.1256 8.1556 90.6007C7.8721 91.2496 7.54765 92.3427 7.5886 92.9097C7.62955 93.4767 8.81395 94.4626 9.65184 94.6926C10.4897 94.9225 11.7056 96.0597 12.1057 96.759C12.6758 97.7575 14.4524 98.7025 15.6841 98.7435C16.9157 98.7844 18.3206 98.7025 18.686 98.2584C19.0514 97.8142 18.727 97.2031 16.459 95.017C14.191 92.8309 12.6506 91.4796 12.1025 89.6841L8.6596 89.1423Z" fill="#2D2979"/>
<path d="M2.51404 95.8549C2.24629 96.5448 1.736 96.9322 1.88405 98.7498C2.0321 100.567 1.86515 101.289 1.6856 102.772C1.50605 104.256 2.26204 106.291 2.97394 107.239C3.68584 108.187 5.62309 108.386 6.24049 106.7C6.85788 105.015 7.00278 103.591 6.57123 101.897C6.13969 100.202 6.71298 98.9073 6.42948 97.7701C6.2679 97.1095 6.03775 96.4677 5.74279 95.8549H2.51404Z" fill="#2D2979"/>
<path d="M2.514 49.0618C2.57385 50.9518 3.16605 59.2331 3.43379 63.6084C3.70154 67.9838 4.08899 73.0773 4.08899 73.0773C3.38047 75.437 2.85393 77.8475 2.514 80.2876C2.02575 84.0361 2.514 95.8612 2.514 95.8612C2.99461 96.1701 3.55389 96.3344 4.12522 96.3344C4.69654 96.3344 5.25583 96.1701 5.73644 95.8612C5.73644 95.8612 7.96033 85.441 8.88643 81.1791C9.81253 76.9171 10.7764 74.8948 10.9717 72.2142C11.167 69.5336 12.1057 54.6498 12.1057 54.6498L12.6097 54.6782L13.854 68.2767C12.8465 69.9348 12.0617 71.7183 11.5198 73.5813C10.83 76.2651 8.65648 89.1423 8.65648 89.1423C8.65648 89.1423 10.1779 90.8527 12.0994 89.6841C12.0994 89.6841 19.6594 72.3812 20.3556 70.677C21.0517 68.9729 20.0406 44.5762 20.0406 44.5762L2.514 49.0618Z" fill="#7FA8E6"/>
<path d="M12.1215 54.6436C12.1215 54.6436 15.5455 53.3836 17.0858 52.1866C17.0858 52.1866 16.2039 53.5411 14.0871 54.6562C13.9107 56.4485 13.8571 68.2767 13.8571 68.2767L12.6255 54.6719L12.1215 54.6436Z" fill="#597BC6"/>
<path d="M7.08469 12.273C7.08469 12.273 7.29889 16.4247 7.20754 16.7932C7.11619 17.1618 5.31754 18.3682 4.77574 18.8124C4.23395 19.2565 7.64224 22.5924 9.29598 23.3578C10.9497 24.1233 16.1819 22.1167 16.2732 19.5463C16.3646 16.9759 15.3786 14.8214 14.5754 14.7048C13.7721 14.5883 7.08469 12.273 7.08469 12.273Z" fill="#FFA8A7"/>
<path d="M7.08459 12.2478L7.20744 15.1237C7.20744 15.1237 9.85344 17.6437 11.9639 17.2531C13.1389 17.0421 13.0192 16.2703 13.0192 16.2703V13.8606L7.08459 12.2478Z" fill="#F28F8F"/>
<path d="M6.60908 17.4106C6.60908 17.4106 9.62048 21.8994 13.8226 22.3215C15.1487 21.0174 15.2684 16.368 13.4351 14.8844C13.4351 14.8844 15.1204 13.5236 16.2701 13.7882C17.5127 14.5376 18.439 15.7148 18.8752 17.0988C19.9425 20.1851 20.4441 23.4387 20.3557 26.7031C20.2832 31.1131 20.3557 44.5573 20.3557 44.5573C20.3557 44.5573 19.7666 47.3923 15.9677 49.5217C12.1688 51.6511 9.35273 51.8464 6.76658 51.2447C4.63719 50.747 2.88264 49.9847 2.14869 48.4538C2.33769 45.37 3.72369 37.3154 3.20079 33.4347C2.67789 29.5539 1.8841 26.6559 1.6573 23.5185C1.4305 20.3811 2.06994 20.4378 3.64494 19.3258C4.58686 18.6187 5.57735 17.9788 6.60908 17.4106Z" fill="#F5FBFB"/>
<path d="M13.8287 22.3278C14.0164 21.3141 14.1374 20.2892 14.191 19.2597C14.0933 17.8202 13.0223 15.9428 13.0223 15.9428V14.7678C13.6345 14.9154 14.1773 15.2691 14.5595 15.7695C15.2651 16.6358 16.3487 18.5069 16.081 20.337C16.081 20.3433 15.5455 21.4112 13.8287 22.3278Z" fill="#E4F2F2"/>
<path d="M13.8287 22.3278C14.1437 21.7356 14.717 19.7385 15.0005 19.4424C15.5549 19.2597 16.081 20.3496 16.081 20.3496C16.081 20.3496 16.0621 21.5088 15.3659 22.1671C15.1586 22.3512 14.8989 22.4657 14.6232 22.4946C14.3474 22.5234 14.0696 22.4651 13.8287 22.3278Z" fill="#F5FBFB"/>
<path d="M15.0005 19.4362C14.717 19.7323 14.1343 21.7294 13.8287 22.3216C14.0204 21.9947 14.2308 21.6792 14.4587 21.3766C14.7737 20.9765 15.1486 20.2111 16.0747 20.3591C16.081 20.3434 15.5549 19.2535 15.0005 19.4362Z" fill="#C8DBDA"/>
<path d="M16.4779 6.08962C15.9834 2.86718 13.6618 0.419638 10.3386 0.608637C9.00515 0.681272 7.72802 1.16995 6.6867 2.00598C5.64539 2.842 4.89225 3.98334 4.53315 5.26955C4.17406 6.55575 4.22706 7.92216 4.68472 9.17668C5.14238 10.4312 5.98167 11.5108 7.08463 12.2636C7.08463 12.2636 7.39963 13.4291 7.59808 13.6717C8.77617 15.0482 12.3231 15.8956 13.35 15.7507C14.6604 15.5617 15.3691 15.0167 15.996 13.5835C17.0985 11.0635 16.752 7.68037 16.4779 6.08962Z" fill="#FFA8A7"/>
<path d="M15.9959 3.49084C15.2983 2.41343 14.2897 1.5735 13.1038 1.08238C11.918 0.591273 10.6109 0.472181 9.35575 0.740896C7.70814 1.09935 6.26837 2.09315 5.34896 3.50659C3.95982 4.00114 3.82122 5.04064 3.99132 6.73218C4.17087 8.51823 4.52052 10.2444 5.38991 11.7564C5.66396 12.2478 6.57746 11.9328 7.08461 12.273C7.01531 12.0557 5.33951 9.55142 7.06571 8.99703C7.32836 9.38266 7.45474 9.84495 7.42481 10.3106C7.42481 10.3106 8.27846 10.2318 8.08631 9.23012L7.93826 8.46783C7.87067 8.08605 7.87929 7.69466 7.96363 7.31623C8.04797 6.93779 8.20635 6.57979 8.42966 6.26283C8.64944 5.96643 8.80333 5.62647 8.88102 5.26574C8.95871 4.90501 8.9584 4.53184 8.88011 4.17124C10.4308 4.76444 12.1204 4.89466 13.7437 4.54609C14.8934 4.28149 15.6746 3.84679 15.9959 3.49084Z" fill="#543354"/>
<path d="M5.34903 3.5066C5.34903 3.5066 4.95213 2.2466 6.58383 0.986607C8.52422 -0.487589 11.2553 -0.15999 14.1438 0.986607C15.9834 1.71741 18.8373 0.819657 18.2829 2.93015C17.4734 6.02029 11.5041 6.28489 8.90537 4.13345C8.69432 4.08935 6.81063 3.17585 5.34903 3.5066Z" fill="#543354"/>
<path d="M7.08471 12.2478C7.08471 12.2478 6.92406 12.5943 6.31296 12.6227C5.14746 12.6825 3.79296 10.5153 4.73796 9.04429C5.32701 8.12764 6.65316 8.44894 7.08156 8.99704L7.08471 12.2478Z" fill="#FFA8A7"/>
<path d="M7.23907 15.9648C7.31782 16.5948 10.7041 19.1148 11.501 19.4298C12.298 19.7448 13.8289 22.3278 13.8289 22.3278C12.6256 22.1231 11.6239 22.6145 10.7576 23.5248C10.7576 23.5248 5.96018 21.5088 5.18213 18.2801C5.18213 18.2801 6.07673 16.5507 6.21218 16.1097C6.34763 15.6687 6.70673 15.1647 7.20757 15.1332L7.23907 15.9648Z" fill="#E4F2F2"/>
<path d="M10.7574 23.5185C10.7574 23.5185 11.1134 21.0458 11.63 20.819C12.1466 20.5922 13.835 22.3215 13.835 22.3215C12.9925 23.0875 11.896 23.514 10.7574 23.5185Z" fill="#F5FBFB"/>
<path d="M11.63 20.8189C11.1134 21.0457 10.7574 23.5185 10.7574 23.5185C10.7574 23.5185 12.1056 22.2837 12.5214 22.1608C12.9372 22.038 13.8287 22.3215 13.8287 22.3215C13.8287 22.3215 12.1434 20.5953 11.63 20.8189Z" fill="#C8DBDA"/>
<g style="mix-blend-mode:multiply" opacity="0.15">
<path d="M98.9826 115.089L54.1456 140.982C53.386 141.365 52.5472 141.565 51.6965 141.565C50.8457 141.565 50.0069 141.365 49.2473 140.982L4.40404 115.089C3.72365 114.704 3.3866 114.194 3.3866 113.678C3.39486 113.472 3.44691 113.271 3.53927 113.087C3.63162 112.904 3.76214 112.742 3.9221 112.613C4.06717 112.477 4.22916 112.361 4.40404 112.266L49.241 86.3829C50.5892 85.6017 52.7816 85.6017 54.1393 86.3829L98.9763 112.266C100.331 113.048 100.331 114.308 98.9826 115.089Z" fill="#6B99D1"/>
</g>
<path d="M98.9826 85.0914L54.1456 110.972C53.3868 111.352 52.5498 111.55 51.7012 111.55C50.8525 111.55 50.0156 111.352 49.2568 110.972L4.40404 85.0914C3.72365 84.6945 3.3866 84.1874 3.3866 83.6771C3.3866 83.1668 3.72365 82.6502 4.40404 82.2659L11.523 78.1709L49.241 56.3887C50.5892 55.6075 52.7816 55.6075 54.1393 56.3887L98.9763 82.2785C100.331 83.0376 100.331 84.3102 98.9826 85.0914Z" fill="#DCEEFF"/>
<path d="M51.6949 101.345V111.554C50.8467 111.574 50.0076 111.376 49.2568 110.981L4.40404 85.0914C3.72365 84.6945 3.3866 84.1874 3.3866 83.6771V74.835C3.39486 74.6297 3.44691 74.4284 3.53927 74.2448C3.63162 74.0612 3.76214 73.8994 3.9221 73.7703L11.523 78.1583L51.6949 101.345Z" fill="#A5CBFA"/>
<path d="M51.6949 101.345V111.554C52.5441 111.573 53.3841 111.376 54.1362 110.981L98.9826 85.0914C99.663 84.6945 100 84.1874 100 83.6771V74.835C99.9918 74.6297 99.9398 74.4284 99.8474 74.2448C99.7551 74.0612 99.6245 73.8994 99.4646 73.7703L91.8636 78.1583L51.6949 101.345Z" fill="#C8E2FF"/>
<path d="M98.9826 76.2462L54.1456 102.139C53.386 102.522 52.5472 102.722 51.6964 102.722C50.8457 102.722 50.0069 102.522 49.2473 102.139L4.40404 76.2462C3.72365 75.8619 3.3866 75.3516 3.3866 74.835C3.39486 74.6296 3.44691 74.4284 3.53927 74.2448C3.63162 74.0612 3.76214 73.8994 3.9221 73.7703C4.06784 73.6345 4.2297 73.5171 4.40404 73.4207L49.2473 47.5277C50.5955 46.7465 52.7879 46.7465 54.1456 47.5277L98.9826 73.4207C100.331 74.205 100.331 75.4745 98.9826 76.2462Z" fill="#DCEEFF"/>
<path d="M51.6917 47.2694C52.4911 47.2522 53.2816 47.4398 53.9881 47.8144L98.8251 73.6947C99.3763 74.0097 99.6787 74.4223 99.6787 74.8413C99.6787 75.2602 99.3637 75.6603 98.8251 75.9753L53.9849 101.865C53.2741 102.221 52.49 102.407 51.6949 102.407C50.8998 102.407 50.1156 102.221 49.4048 101.865L4.56469 75.9753C4.0103 75.6603 3.7079 75.2539 3.7079 74.835C3.71581 74.6709 3.75869 74.5105 3.83366 74.3643C3.90863 74.2182 4.01396 74.0898 4.14259 73.9876C4.2702 73.8662 4.41191 73.7604 4.56469 73.6727L49.4048 47.7923C50.1079 47.4178 50.8953 47.2301 51.6917 47.2474V47.2694ZM51.6917 46.9324C50.8403 46.9156 49.9987 47.1173 49.2473 47.5183L4.40404 73.4207C4.2297 73.517 4.06784 73.6345 3.9221 73.7703C3.76214 73.8994 3.63162 74.0611 3.53927 74.2448C3.44691 74.4284 3.39486 74.6296 3.3866 74.835C3.3866 75.3516 3.72365 75.8619 4.40404 76.2462L49.241 102.139C50.0006 102.522 50.8394 102.722 51.6902 102.722C52.5409 102.722 53.3797 102.522 54.1393 102.139L98.9763 76.2462C100.324 75.4745 100.324 74.205 98.9763 73.4112L54.1456 47.5277C53.3908 47.1268 52.5462 46.9251 51.6917 46.9418V46.9324Z" fill="white"/>
<path d="M50.0789 53.6923L15.0698 73.8963C14.1689 74.4161 14.1689 75.2603 15.0698 75.7863L50.0789 95.9841C50.5846 96.2404 51.1436 96.3739 51.7106 96.3739C52.2775 96.3739 52.8365 96.2404 53.3423 95.9841L88.3198 75.78C89.2207 75.2603 89.2207 74.4161 88.3198 73.8901L53.3265 53.6923C52.8228 53.4386 52.2667 53.3065 51.7027 53.3065C51.1387 53.3065 50.5826 53.4386 50.0789 53.6923Z" fill="#194A89"/>
<path d="M88.3199 73.8963L53.3266 53.6923C52.8243 53.4272 52.2629 53.2939 51.6949 53.3048V54.9617L88.0364 75.9438L88.3199 75.78C89.2208 75.2477 89.2208 74.4161 88.3199 73.8963Z" fill="#1E3779"/>
<path d="M51.6948 53.3048C51.1268 53.2935 50.5653 53.4268 50.0631 53.6923L15.0698 73.8963C14.1689 74.4161 14.1689 75.2603 15.0698 75.7863L15.3502 75.9501L51.6948 54.9617V53.3048Z" fill="#031F60"/>
<path d="M40.2163 63.7943L51.6886 70.4219L51.6949 35.0821L40.2163 28.4577V63.7943Z" fill="#00A2BA"/>
<path d="M51.6886 70.4219L63.1703 63.7943L63.1672 28.4545L51.6949 35.0821L51.6886 70.4219Z" fill="#0D88D6"/>
<path d="M63.1672 28.4545L51.6886 21.827L40.2163 28.4577L51.6949 35.0821L63.1672 28.4545Z" fill="url(#paint0_linear)"/>
<path d="M59.3494 74.835L70.8216 81.4658L70.8248 50.5423L59.3494 43.9178V74.835Z" fill="#00A2BA"/>
<path d="M70.8217 81.4658L82.3034 74.835L82.2971 43.9178L70.8248 50.5423L70.8217 81.4658Z" fill="#0D88D6"/>
<path d="M82.2971 43.9179L70.8216 37.2903L59.3494 43.9179L70.8248 50.5423L82.2971 43.9179Z" fill="url(#paint1_linear)"/>
<path d="M21.0833 74.8382L32.5587 81.4658L32.5618 46.126L21.0833 39.4984V74.8382Z" fill="#00A2BA"/>
<path d="M32.5587 81.4658L44.0373 74.8382L44.0341 39.4984L32.5619 46.126L32.5587 81.4658Z" fill="#0D88D6"/>
<path d="M44.0341 39.4984L32.5587 32.8708L21.0833 39.4984L32.5618 46.126L44.0341 39.4984Z" fill="url(#paint2_linear)"/>
<path d="M40.2194 85.882L51.6916 92.5096L51.6979 66.0024L40.2194 59.378V85.882Z" fill="#00A2BA"/>
<path d="M51.6917 92.5096L63.1734 85.882L63.1702 59.378L51.698 66.0024L51.6917 92.5096Z" fill="#0D88D6"/>
<path d="M63.1702 59.378L51.6916 52.7473L40.2194 59.378L51.6979 66.0025L63.1702 59.378Z" fill="url(#paint3_linear)"/>
<path d="M24.1166 46.8978C23.2913 46.8978 22.5605 46.6395 21.4013 46.7308C20.3807 46.8096 19.9586 46.8253 19.0483 46.5292C18.0655 46.2142 15.7723 44.2896 13.8161 42.283C11.5072 39.9111 9.45339 36.1563 8.80134 34.4081C7.47204 30.8927 6.36324 25.5881 5.71435 23.5217C5.06545 21.4553 4.06375 20.9796 2.81635 20.7119C1.34846 20.4189 0.0758596 21.5057 0.623958 24.5958C1.47537 28.8337 2.796 32.9636 4.56145 36.9091C5.95556 39.8012 7.81817 42.4429 10.0739 44.7274C12.1372 46.8631 14.0965 48.1641 16.585 49.7674C17.2622 50.2084 17.6591 50.7124 18.853 51.6984C20.0468 52.6843 21.6628 53.5506 22.948 53.7648C24.2332 53.979 24.7246 53.8498 24.8821 53.6104C25.0774 53.2954 24.8821 53.034 24.2993 52.8702C23.3681 52.6783 22.4791 52.3197 21.6754 51.8118C21.6754 51.8118 22.9165 52.2339 23.6788 52.4197C24.3585 52.5881 25.0577 52.6644 25.7577 52.6465C26.4318 52.615 26.9673 51.7677 26.3877 51.5881C25.8081 51.4086 25.3167 51.4275 24.1828 51.1345C23.5841 50.9821 23.0056 50.759 22.4597 50.4699C23.2232 50.6199 23.9974 50.7095 24.775 50.7376C25.8522 50.7376 26.2995 50.5392 26.5862 50.3785C26.8728 50.2179 27.0272 49.6414 26.2712 49.5123C25.6034 49.3989 24.6962 49.5406 23.4709 49.1217C22.57 48.8067 21.9746 48.4917 22.1416 48.3846C22.3085 48.2775 22.822 48.5043 23.641 48.3846C24.46 48.2649 25.1183 47.679 25.0175 47.2474C24.9167 46.8159 24.9388 46.8978 24.1166 46.8978Z" fill="#FFA8A7"/>
<path d="M1.88402 20.5732C0.340526 21.2032 -0.396572 22.8979 0.214527 25.9282C0.813025 28.9018 2.07617 33.4882 2.07617 33.4882C2.07617 33.4882 4.98362 33.5764 7.94776 31.1037C7.94776 31.1037 6.52081 24.5737 5.96326 22.8885C5.40571 21.2032 3.93782 19.7102 1.88402 20.5732Z" fill="#E4F2F2"/>
<defs>
<linearGradient id="paint0_linear" x1="40.2163" y1="28.4545" x2="63.1672" y2="28.4545" gradientUnits="userSpaceOnUse">
<stop stop-color="#59C09D"/>
<stop offset="1" stop-color="#0D88D6"/>
</linearGradient>
<linearGradient id="paint1_linear" x1="4383.38" y1="2336.91" x2="6055.12" y2="2336.91" gradientUnits="userSpaceOnUse">
<stop stop-color="#6FCCDA"/>
<stop offset="1" stop-color="#59C09D"/>
</linearGradient>
<linearGradient id="paint2_linear" x1="1557.64" y1="2147.2" x2="3229.84" y2="2147.2" gradientUnits="userSpaceOnUse">
<stop stop-color="#6FCCDA"/>
<stop offset="0.3125" stop-color="#0D88D6"/>
<stop offset="0.666667" stop-color="#59C09D"/>
</linearGradient>
<linearGradient id="paint3_linear" x1="2971.04" y1="3003.48" x2="4643.24" y2="3003.48" gradientUnits="userSpaceOnUse">
<stop stop-color="#6FCCDA"/>
<stop offset="1" stop-color="#0D88D6"/>
</linearGradient>
</defs>
</svg>
