<svg width="101" height="147" viewBox="0 0 101 147" fill="none" xmlns="http://www.w3.org/2000/svg">
<g style="mix-blend-mode:multiply" opacity="0.15">
<path d="M76.6475 136.441L83.8816 132.265C88.7921 129.43 95.5731 128.751 99.0221 130.742C102.471 132.733 101.295 136.65 96.3879 139.485L89.1501 143.672C84.2434 146.507 77.4586 147.187 74.0133 145.192C70.568 143.197 71.7408 139.288 76.6475 136.441Z" fill="#6B99D1"/>
</g>
<g opacity="0.3">
<path opacity="0.3" d="M3.66712 27.1626L48.3505 1.36463C49.8119 0.513345 51.0176 1.20387 51.0176 2.90279V35.248C50.9671 36.1732 50.6993 37.0734 50.2359 37.8758C49.7725 38.6782 49.1266 39.36 48.3505 39.8661L3.66712 65.6641C2.20568 66.5154 1 65.8249 1 64.126V31.7807C1.0502 30.8555 1.31788 29.9551 1.78129 29.1527C2.2447 28.3503 2.8908 27.6685 3.66712 27.1626Z" fill="#00A3BB"/>
<path opacity="0.3" d="M3.66712 27.1626L48.3505 1.36463C49.8119 0.513345 51.0176 1.20387 51.0176 2.90279V35.248C50.9671 36.1732 50.6993 37.0734 50.2359 37.8758C49.7725 38.6782 49.1266 39.36 48.3505 39.8661L3.66712 65.6641C2.20568 66.5154 1 65.8249 1 64.126V31.7807C1.0502 30.8555 1.31788 29.9551 1.78129 29.1527C2.2447 28.3503 2.8908 27.6685 3.66712 27.1626V27.1626Z" stroke="#E9FFFB" stroke-miterlimit="10"/>
<path opacity="0.8" d="M6.50226 31.9963L24.6752 21.5032C25.4059 21.0794 26.0088 21.4228 26.0088 22.2741V22.3472C25.9856 22.8102 25.8525 23.2611 25.6206 23.6626C25.3888 24.0641 25.0647 24.4047 24.6752 24.6562L6.50226 35.1603C5.77154 35.5841 5.1687 35.2407 5.1687 34.3894V34.3163C5.1902 33.8514 5.32243 33.3983 5.55438 32.9947C5.78634 32.5912 6.11131 32.2489 6.50226 31.9963Z" fill="#59C09D"/>
<path opacity="0.8" d="M29.856 18.5146L45.5153 9.47194C46.246 9.04812 46.8489 9.39156 46.8489 10.2428V10.3159C46.8256 10.779 46.6926 11.2299 46.4607 11.6314C46.2288 12.0329 45.9048 12.3735 45.5153 12.625L29.856 21.6676C29.1253 22.0914 28.5225 21.748 28.5225 20.9004V20.8236C28.5457 20.3606 28.6787 19.9097 28.9106 19.5082C29.1425 19.1067 29.4665 18.7661 29.856 18.5146Z" fill="#59C09D"/>
<g opacity="0.8">
<path opacity="0.8" d="M6.50226 46.8298L24.6752 36.3367C25.4059 35.9129 26.0088 36.2564 26.0088 37.1076V37.1807C25.9856 37.6438 25.8525 38.0947 25.6206 38.4962C25.3888 38.8977 25.0647 39.2383 24.6752 39.4898L6.50226 49.9829C5.77154 50.4067 5.1687 50.0633 5.1687 49.212V49.1389C5.19191 48.6758 5.32495 48.2249 5.55683 47.8234C5.7887 47.4219 6.11277 47.0814 6.50226 46.8298Z" fill="#59C09D"/>
<path opacity="0.8" d="M29.856 33.3335L45.5153 24.2909C46.246 23.8635 46.8489 24.2105 46.8489 25.0618V25.1349C46.8256 25.598 46.6926 26.0489 46.4607 26.4504C46.2288 26.8519 45.9048 27.1924 45.5153 27.444L29.856 36.5012C29.1253 36.925 28.5225 36.5816 28.5225 35.7303V35.6572C28.5434 35.1916 28.6753 34.7378 28.9073 34.3336C29.1393 33.9294 29.4646 33.5865 29.856 33.3335Z" fill="#59C09D"/>
</g>
<g opacity="0.8">
<path opacity="0.8" d="M6.50226 39.4131L16.3414 33.7318C17.0721 33.3079 17.6713 33.6514 17.6713 34.5027V34.5794C17.646 35.042 17.5121 35.4921 17.2804 35.8933C17.0487 36.2945 16.7258 36.6354 16.3377 36.8885L6.50226 42.5661C5.77154 42.99 5.1687 42.6465 5.1687 41.7952V41.7368C5.18963 41.2712 5.32158 40.8174 5.55356 40.4131C5.78554 40.0089 6.11082 39.666 6.50226 39.4131Z" fill="#59C09D"/>
<path opacity="0.8" d="M20.7586 31.1815L29.1034 26.3369C29.8341 25.9094 30.4333 26.2528 30.4333 27.1005V27.1772C30.4085 27.64 30.2751 28.0904 30.0441 28.4921C29.8131 28.8939 29.4909 29.2357 29.1034 29.4899L20.7586 34.3346C20.0279 34.762 19.425 34.4186 19.425 33.5673V33.4942C19.45 33.0311 19.5838 32.5803 19.8155 32.1785C20.0472 31.7767 20.3703 31.4352 20.7586 31.1815Z" fill="#59C09D"/>
<path opacity="0.8" d="M33.8348 23.5967L45.5263 16.8851C46.257 16.4613 46.8598 16.8083 46.8598 17.6596V17.7327C46.836 18.1951 46.7027 18.6453 46.4709 19.0461C46.239 19.4469 45.9153 19.7869 45.5263 20.0381L33.8348 26.7571C33.1041 27.1809 32.4976 26.8338 32.4976 25.9862V25.9094C32.5221 25.4458 32.656 24.9945 32.8884 24.5925C33.1209 24.1905 33.4451 23.8493 33.8348 23.5967Z" fill="#59C09D"/>
</g>
<g opacity="0.8">
<path opacity="0.8" d="M6.50226 54.3271L22.3515 45.1931C23.0822 44.7693 23.6851 45.1164 23.6851 45.964V46.0407C23.6601 46.5034 23.5263 46.9536 23.2946 47.3548C23.0629 47.7561 22.7398 48.0969 22.3515 48.3498L6.50226 57.4838C5.77154 57.9112 5.1687 57.5641 5.1687 56.7165V56.6398C5.19309 56.1765 5.3266 55.7255 5.55835 55.3236C5.79009 54.9217 6.11352 54.5802 6.50226 54.3271Z" fill="#59C09D"/>
<path opacity="0.8" d="M26.7579 42.6429L35.1063 37.7982C35.837 37.3707 36.4362 37.7142 36.4362 38.5655V38.6422C36.4108 39.1043 36.2772 39.554 36.0463 39.9551C35.8153 40.3561 35.4933 40.6974 35.1063 40.9512L26.7579 45.7959C26.0272 46.2234 25.428 45.8799 25.428 45.0323V44.9556C25.4534 44.4929 25.587 44.0427 25.8179 43.6411C26.0489 43.2394 26.3708 42.8975 26.7579 42.6429Z" fill="#59C09D"/>
<path opacity="0.8" d="M39.8486 35.058L45.5153 31.799C46.246 31.3752 46.8488 31.7223 46.8488 32.5736V32.6466C46.8236 33.1092 46.6897 33.5594 46.458 33.9605C46.2263 34.3617 45.9033 34.7027 45.5153 34.9557L39.8486 38.2111C39.1178 38.6349 38.5114 38.2914 38.5114 37.4401V37.3525C38.5387 36.8919 38.674 36.4443 38.9062 36.0457C39.1385 35.6471 39.4613 35.3088 39.8486 35.058Z" fill="#59C09D"/>
</g>
</g>
<g opacity="0.5">
<path opacity="0.5" d="M12.0046 31.9744L56.688 6.1764C58.1495 5.32511 59.3515 6.01564 59.3515 7.71456V40.0598C59.3019 40.9851 59.0344 41.8857 58.571 42.6882C58.1075 43.4907 57.4611 44.1724 56.6844 44.6779L12.0046 70.4795C10.5432 71.3272 9.33752 70.6403 9.33752 68.9377V36.5925C9.38802 35.6673 9.65581 34.7671 10.1192 33.9647C10.5826 33.1624 11.2285 32.4805 12.0046 31.9744Z" fill="#00A3BB"/>
<path opacity="0.5" d="M12.0046 31.9744L56.688 6.1764C58.1495 5.32511 59.3515 6.01564 59.3515 7.71456V40.0598C59.3019 40.9852 59.0344 41.8857 58.571 42.6882C58.1075 43.4907 57.4611 44.1724 56.6844 44.6779L12.0046 70.4795C10.5432 71.3272 9.33752 70.6403 9.33752 68.9377V36.5925C9.38802 35.6673 9.65581 34.7671 10.1192 33.9647C10.5826 33.1624 11.2285 32.4805 12.0046 31.9744V31.9744Z" stroke="#E9FFFB" stroke-miterlimit="10"/>
<path opacity="0.8" d="M14.8361 36.8081L33.0127 26.315C33.7434 25.8911 34.3463 26.2346 34.3463 27.0859V27.1626C34.3202 27.625 34.1859 28.0748 33.9543 28.4758C33.7227 28.8769 33.4002 29.218 33.0127 29.4717L14.8361 39.9611C14.1054 40.3886 13.5062 40.0415 13.5062 39.1938V39.1171C13.5316 38.655 13.6652 38.2053 13.8962 37.8042C14.1272 37.4032 14.4492 37.0619 14.8361 36.8081Z" fill="#59C09D"/>
<path opacity="0.8" d="M38.1898 23.3263L53.8527 14.2837C54.5834 13.8599 55.1863 14.2033 55.1863 15.0546V15.1313C55.161 15.5939 55.0271 16.0441 54.7954 16.4452C54.5637 16.8464 54.2408 17.1873 53.8527 17.4404L38.1898 26.4794C37.4591 26.9068 36.8599 26.5598 36.8599 25.7121V25.6354C36.8853 25.1733 37.0189 24.7236 37.2498 24.3225C37.4808 23.9214 37.8028 23.5802 38.1898 23.3263Z" fill="#59C09D"/>
<g opacity="0.8">
<path opacity="0.8" d="M14.8361 51.6416L33.0127 41.1485C33.7434 40.7247 34.3463 41.0681 34.3463 41.9194V41.9961C34.3185 42.4566 34.1835 42.9043 33.9519 43.3033C33.7204 43.7023 33.3988 44.0416 33.0127 44.2942L14.8361 54.7947C14.1054 55.2221 13.5062 54.875 13.5062 54.0274V53.9507C13.5314 53.4885 13.6648 53.0387 13.8958 52.6376C14.1268 52.2364 14.449 51.8953 14.8361 51.6416Z" fill="#59C09D"/>
<path opacity="0.8" d="M38.1898 38.1599L53.8527 29.1173C54.5834 28.6934 55.1863 29.0369 55.1863 29.8882V29.9649C55.1625 30.4273 55.0292 30.8775 54.7973 31.2783C54.5655 31.6791 54.2417 32.0191 53.8527 32.2703L38.1898 41.3129C37.4591 41.7404 36.8599 41.3933 36.8599 40.5457V40.469C36.8853 40.0068 37.0189 39.5571 37.2498 39.1561C37.4808 38.755 37.8028 38.4138 38.1898 38.1599Z" fill="#59C09D"/>
</g>
<g opacity="0.8">
<path opacity="0.8" d="M14.8361 44.2249L24.6752 38.5472C25.406 38.1197 26.0088 38.4668 26.0088 39.3144V39.3912C25.9856 39.8542 25.8526 40.3051 25.6207 40.7066C25.3888 41.1081 25.0647 41.4487 24.6752 41.7002L14.8361 47.3779C14.1054 47.8054 13.5062 47.4583 13.5062 46.6106V46.5339C13.5316 46.0718 13.6652 45.6221 13.8962 45.221C14.1272 44.82 14.4492 44.4787 14.8361 44.2249Z" fill="#59C09D"/>
<path opacity="0.8" d="M29.0925 35.9933L37.4409 31.1413C38.1716 30.7139 38.7708 31.0573 38.7708 31.9086V31.9853C38.7454 32.4474 38.6118 32.8972 38.3808 33.2982C38.1499 33.6993 37.8279 34.0405 37.4409 34.2944L29.0925 39.1464C28.3618 39.5738 27.7626 39.2304 27.7626 38.3828V38.306C27.7874 37.8433 27.9207 37.3928 28.1518 36.9911C28.3828 36.5893 28.705 36.2476 29.0925 35.9933Z" fill="#59C09D"/>
<path opacity="0.8" d="M42.1686 28.4085L53.8601 21.7005C54.5908 21.2767 55.1973 21.6201 55.1973 22.4714V22.5481C55.1717 23.0106 55.0372 23.4604 54.8048 23.861C54.5725 24.2616 54.2488 24.6017 53.8601 24.8536L42.1686 31.5615C41.4379 31.9854 40.8351 31.6419 40.8351 30.7906V30.7176C40.8603 30.255 40.9942 29.8048 41.2259 29.4037C41.4576 29.0025 41.7806 28.6615 42.1686 28.4085Z" fill="#59C09D"/>
</g>
<g opacity="0.8">
<path opacity="0.8" d="M14.8398 59.1424L30.689 50.0085C31.4198 49.581 32.0226 49.9281 32.0226 50.7794V50.8524C31.9994 51.3155 31.8664 51.7664 31.6345 52.1679C31.4026 52.5694 31.0785 52.91 30.689 53.1615L14.8398 62.2955C14.1091 62.7193 13.5062 62.3758 13.5062 61.5246V61.4661C13.5272 61.0005 13.6591 60.5467 13.8911 60.1425C14.1231 59.7382 14.4483 59.3954 14.8398 59.1424Z" fill="#59C09D"/>
<path opacity="0.8" d="M35.1063 47.4583L43.4547 42.61C44.1854 42.1825 44.7846 42.5259 44.7846 43.3772V43.4539C44.7594 43.917 44.6255 44.3677 44.3938 44.7694C44.1622 45.1712 43.8392 45.5128 43.4511 45.7667L35.1063 50.6113C34.3756 51.0351 33.7764 50.6954 33.7764 49.8441V49.7747C33.8004 49.3112 33.9333 48.8599 34.1644 48.4575C34.3954 48.055 34.7181 47.7127 35.1063 47.4583Z" fill="#59C09D"/>
<path opacity="0.8" d="M48.1861 39.8734L53.8528 36.6217C54.5835 36.1979 55.1864 36.5413 55.1864 37.3926V37.4693C55.1606 37.9313 55.0264 38.3807 54.7947 38.7812C54.5631 39.1817 54.2404 39.5221 53.8528 39.7748L48.1861 43.0338C47.4554 43.4576 46.8489 43.1105 46.8489 42.2592V42.1861C46.8719 41.7221 47.0052 41.2703 47.2378 40.8681C47.4704 40.4659 47.7954 40.1249 48.1861 39.8734Z" fill="#59C09D"/>
</g>
</g>
<g opacity="0.7">
<path opacity="0.7" d="M20.3384 36.7861L65.0254 10.9881C66.4869 10.1405 67.6889 10.8274 67.6889 12.5263V44.8752C67.6391 45.8001 67.372 46.7003 66.9092 47.5026C66.4464 48.305 65.8011 48.987 65.0254 49.4933L20.3384 75.2913C18.877 76.1389 17.6749 75.452 17.6749 73.7531V41.4043C17.7247 40.4793 17.9918 39.5792 18.4546 38.7768C18.9174 37.9744 19.5627 37.2924 20.3384 36.7861Z" fill="#00A3BB"/>
<path opacity="0.7" d="M20.3384 36.7861L65.0254 10.9881C66.4869 10.1405 67.6889 10.8274 67.6889 12.5263V44.8752C67.6391 45.8001 67.372 46.7003 66.9092 47.5026C66.4464 48.305 65.8011 48.987 65.0254 49.4933L20.3384 75.2913C18.877 76.1389 17.6749 75.452 17.6749 73.7531V41.4043C17.7247 40.4793 17.9918 39.5792 18.4546 38.7768C18.9174 37.9744 19.5627 37.2924 20.3384 36.7861V36.7861Z" stroke="#E9FFFB" stroke-miterlimit="10"/>
<path opacity="0.8" d="M23.1736 41.6235L41.3466 31.1414C42.0773 30.7139 42.6801 31.061 42.6801 31.9086V31.9853C42.6569 32.4484 42.5239 32.8993 42.292 33.3008C42.0601 33.7023 41.7361 34.0429 41.3466 34.2944L23.1736 44.7765C22.4429 45.2004 21.8401 44.8569 21.8401 44.0056V43.9289C21.8659 43.4669 22.0001 43.0175 22.2317 42.617C22.4634 42.2165 22.7861 41.8762 23.1736 41.6235Z" fill="#59C09D"/>
<path opacity="0.8" d="M46.5273 28.1418L62.1975 19.0845C62.9282 18.657 63.5311 19.0005 63.5311 19.8518V19.9285C63.5081 20.3936 63.3753 20.8467 63.1435 21.2506C62.9117 21.6544 62.5875 21.9977 62.1975 22.2522L46.5273 31.2948C45.7966 31.7186 45.1937 31.3752 45.1937 30.5239V30.4508C45.219 29.9882 45.3529 29.5381 45.5846 29.1369C45.8163 28.7357 46.1392 28.3948 46.5273 28.1418Z" fill="#59C09D"/>
<g opacity="0.8">
<path opacity="0.8" d="M23.1736 56.4571L41.3466 45.964C42.0773 45.5365 42.6801 45.8836 42.6801 46.7312V46.808C42.6569 47.271 42.5239 47.7219 42.292 48.1234C42.0601 48.5249 41.7361 48.8655 41.3466 49.117L23.1736 59.6101C22.4429 60.0339 21.8401 59.6905 21.8401 58.8392V58.7625C21.8659 58.3005 22.0001 57.8511 22.2317 57.4506C22.4634 57.0501 22.7861 56.7098 23.1736 56.4571Z" fill="#59C09D"/>
<path opacity="0.8" d="M46.5273 42.9753L62.1975 33.929C62.9282 33.5052 63.5311 33.8486 63.5311 34.6999V34.7949C63.5025 35.2542 63.367 35.7005 63.1355 36.0982C62.904 36.4959 62.5828 36.8341 62.1975 37.0857L46.5273 46.121C45.7966 46.5449 45.1937 46.2014 45.1937 45.3501V45.2734C45.2207 44.8127 45.3553 44.3648 45.587 43.9656C45.8186 43.5665 46.1407 43.2273 46.5273 42.9753Z" fill="#59C09D"/>
</g>
<g opacity="0.8">
<path opacity="0.8" d="M23.1736 49.044L33.0128 43.3626C33.7435 42.9388 34.3463 43.2822 34.3463 44.1335V44.2066C34.3211 44.6692 34.1872 45.1193 33.9555 45.5205C33.7238 45.9217 33.4008 46.2626 33.0128 46.5157L23.1736 52.1933C22.4429 52.6172 21.8401 52.2737 21.8401 51.4224V51.3494C21.8659 50.8874 22.0001 50.438 22.2317 50.0375C22.4634 49.637 22.7861 49.2966 23.1736 49.044Z" fill="#59C09D"/>
<path opacity="0.8" d="M37.43 40.8087L45.7748 35.9604C46.5055 35.5366 47.1084 35.8764 47.1084 36.7277V36.8044C47.0828 37.2674 46.9488 37.7179 46.7172 38.1197C46.4855 38.5214 46.1627 38.8631 45.7748 39.1171L37.43 43.9618C36.6993 44.3892 36.1001 44.0458 36.1001 43.1945V43.1178C36.1252 42.6556 36.2587 42.2058 36.4897 41.8047C36.7207 41.4036 37.0428 41.0624 37.43 40.8087Z" fill="#59C09D"/>
<path opacity="0.8" d="M50.5062 33.2239L62.1976 26.5122C62.9284 26.0884 63.5349 26.4355 63.5349 27.2831V27.3599C63.513 27.8252 63.3802 28.2785 63.1476 28.682C62.915 29.0856 62.5893 29.4277 62.1976 29.6799L50.5062 36.3769C49.7754 36.8007 49.1726 36.4536 49.1726 35.6024V35.5256C49.197 35.0638 49.3305 34.6144 49.5624 34.2143C49.7942 33.8141 50.1176 33.4747 50.5062 33.2239Z" fill="#59C09D"/>
</g>
<g opacity="0.8">
<path opacity="0.8" d="M23.1736 63.9542L39.0266 54.8203C39.7573 54.3964 40.3601 54.7399 40.3601 55.5912V55.6679C40.3363 56.1303 40.203 56.5805 39.9712 56.9813C39.7393 57.3821 39.4156 57.7221 39.0266 57.9733L23.1736 67.1073C22.4429 67.5311 21.8401 67.1877 21.8401 66.3364V66.2633C21.8653 65.8007 21.9992 65.3506 22.2309 64.9494C22.4626 64.5482 22.7856 64.2073 23.1736 63.9542Z" fill="#59C09D"/>
<path opacity="0.8" d="M43.4437 52.27L51.7885 47.4254C52.5192 46.9979 53.122 47.3413 53.122 48.189V48.2657C53.0971 48.7288 52.9633 49.1796 52.7316 49.5814C52.4999 49.9832 52.1768 50.3248 51.7885 50.5784L43.4437 55.4231C42.713 55.8505 42.1138 55.5071 42.1138 54.6558V54.5827C42.1386 54.12 42.2719 53.6695 42.503 53.2678C42.734 52.8661 43.0562 52.5243 43.4437 52.27Z" fill="#59C09D"/>
<path opacity="0.8" d="M56.52 44.6852L62.1977 41.4262C62.9284 41.0024 63.5349 41.3495 63.5349 42.1971V42.2738C63.5107 42.7366 63.3768 43.187 63.1443 43.5878C62.9118 43.9886 62.5873 44.3285 62.1977 44.5792L56.531 47.8382C55.8002 48.262 55.1974 47.9149 55.1974 47.0673V46.9906C55.2214 46.5295 55.3536 46.0805 55.5834 45.68C55.8132 45.2794 56.134 44.9387 56.52 44.6852Z" fill="#59C09D"/>
</g>
</g>
<g opacity="0.9">
<path opacity="0.9" d="M28.6759 41.6016L73.3593 15.7963C74.8207 14.945 76.0264 15.6319 76.0264 17.3345V49.6797C75.9765 50.605 75.7089 51.5055 75.2455 52.3079C74.7821 53.1104 74.1358 53.7921 73.3593 54.2978L28.6759 80.0994C27.2145 80.9507 26.0125 80.2602 26.0125 78.5613V46.2197C26.0617 45.2947 26.3285 44.3943 26.7914 43.5918C27.2542 42.7894 27.8999 42.1075 28.6759 41.6016Z" fill="#00A3BB"/>
<path opacity="0.9" d="M28.6759 41.6016L73.3593 15.7963C74.8207 14.945 76.0264 15.6319 76.0264 17.3345V49.6797C75.9765 50.605 75.7089 51.5055 75.2455 52.3079C74.7821 53.1104 74.1358 53.7921 73.3593 54.2978L28.6759 80.0994C27.2145 80.9507 26.0125 80.2602 26.0125 78.5613V46.2197C26.0617 45.2947 26.3285 44.3943 26.7914 43.5918C27.2542 42.7894 27.8999 42.1075 28.6759 41.6016Z" stroke="#E9FFFB" stroke-miterlimit="10"/>
<path opacity="0.8" d="M31.5074 46.4353L49.6803 35.9422C50.411 35.5183 51.0139 35.8618 51.0139 36.7131V36.7861C50.9907 37.2492 50.8576 37.7001 50.6258 38.1016C50.3939 38.5031 50.0698 38.8437 49.6803 39.0952L31.5074 49.5883C30.7767 50.0121 30.1738 49.6687 30.1738 48.8174V48.7443C30.197 48.2813 30.3301 47.8304 30.562 47.4289C30.7938 47.0274 31.1179 46.6868 31.5074 46.4353Z" fill="#59C09D"/>
<path opacity="0.8" d="M54.8648 32.9681L70.5241 23.9255C71.2548 23.5017 71.8576 23.8451 71.8576 24.6928V24.7695C71.8344 25.2326 71.7014 25.6835 71.4695 26.085C71.2376 26.4865 70.9136 26.827 70.5241 27.0786L54.8648 36.1066C54.1341 36.5304 53.5312 36.187 53.5312 35.3357V35.2626C53.5567 34.8021 53.6908 34.3541 53.9226 33.9553C54.1544 33.5565 54.4773 33.2182 54.8648 32.9681Z" fill="#59C09D"/>
<g opacity="0.8">
<path opacity="0.8" d="M31.5074 61.2688L49.6803 50.7757C50.411 50.3519 51.0139 50.6954 51.0139 51.543V51.6197C50.9907 52.0828 50.8576 52.5337 50.6258 52.9352C50.3939 53.3367 50.0698 53.6773 49.6803 53.9288L31.5074 64.4219C30.7767 64.8457 30.1738 64.5023 30.1738 63.651V63.5779C30.197 63.1148 30.3301 62.6639 30.562 62.2624C30.7938 61.8609 31.1179 61.5204 31.5074 61.2688Z" fill="#59C09D"/>
<path opacity="0.8" d="M54.8648 47.7871L70.5241 38.7444C71.2548 38.317 71.8576 38.6641 71.8576 39.5117V39.5884C71.8344 40.0515 71.7014 40.5024 71.4695 40.9039C71.2376 41.3054 70.9136 41.646 70.5241 41.8975L54.8648 50.9401C54.1341 51.3639 53.5312 51.0205 53.5312 50.1692V50.0961C53.5545 49.6331 53.6875 49.1822 53.9194 48.7807C54.1513 48.3792 54.4753 48.0386 54.8648 47.7871Z" fill="#59C09D"/>
</g>
<g opacity="0.8">
<path opacity="0.8" d="M31.5074 53.8521L41.3465 48.1707C42.0772 47.7469 42.6801 48.0903 42.6801 48.9416V49.0184C42.6543 49.4803 42.5201 49.9297 42.2884 50.3302C42.0568 50.7307 41.7341 51.0711 41.3465 51.3238L31.5074 57.0051C30.7767 57.4289 30.1738 57.0855 30.1738 56.2342V56.1611C30.197 55.6981 30.3301 55.2472 30.562 54.8457C30.7938 54.4442 31.1179 54.1036 31.5074 53.8521Z" fill="#59C09D"/>
<path opacity="0.8" d="M45.7564 45.6205L54.1012 40.7758C54.8319 40.3484 55.4311 40.6918 55.4311 41.5394V41.6162C55.4063 42.0789 55.2729 42.5294 55.0419 42.9311C54.8109 43.3328 54.4887 43.6746 54.1012 43.9289L45.7564 48.7735C45.0257 49.201 44.4229 48.8576 44.4229 48.0063V47.9478C44.4461 47.4823 44.5791 47.0288 44.8108 46.6244C45.0426 46.22 45.3666 45.876 45.7564 45.6205Z" fill="#59C09D"/>
<path opacity="0.8" d="M58.8436 38.0357L70.5351 31.324C71.2658 30.9002 71.8686 31.2473 71.8686 32.0986V32.1717C71.8448 32.6341 71.7115 33.0843 71.4797 33.4851C71.2478 33.8859 70.9241 34.2259 70.5351 34.4771L58.8436 41.1887C58.1129 41.6125 57.51 41.2654 57.51 40.4178V40.3411C57.5338 39.8787 57.6671 39.4285 57.8989 39.0277C58.1308 38.6268 58.4546 38.2868 58.8436 38.0357Z" fill="#59C09D"/>
</g>
<g opacity="0.8">
<path opacity="0.8" d="M31.5074 68.7733L47.3603 59.6394C48.091 59.2156 48.6939 59.5626 48.6939 60.4103V60.487C48.6686 60.9491 48.5347 61.3987 48.303 61.7993C48.0713 62.1999 47.7483 62.5402 47.3603 62.7924L31.5074 71.9191C30.7767 72.3465 30.1738 71.9995 30.1738 71.1482V71.0751C30.1999 70.6137 30.3342 70.1649 30.5659 69.7651C30.7976 69.3652 31.1201 69.0255 31.5074 68.7733Z" fill="#59C09D"/>
<path opacity="0.8" d="M51.7812 57.0818L60.126 52.2372C60.8567 51.8097 61.4559 52.1531 61.4559 53.0044V53.0775C61.431 53.5402 61.2977 53.9907 61.0667 54.3924C60.8357 54.7942 60.5134 55.136 60.126 55.3902L51.7812 60.2349C51.0505 60.6623 50.4476 60.3189 50.4476 59.4713V59.3945C50.4732 58.9315 50.6072 58.481 50.8388 58.0793C51.0705 57.6775 51.3933 57.3359 51.7812 57.0818Z" fill="#59C09D"/>
<path opacity="0.8" d="M64.8574 49.497L70.5241 46.238C71.2548 45.8142 71.8576 46.1613 71.8576 47.0125V47.0856C71.8344 47.5487 71.7014 47.9996 71.4695 48.4011C71.2376 48.8026 70.9136 49.1432 70.5241 49.3947L64.8574 52.65C64.1266 53.0738 63.5238 52.7304 63.5238 51.8791V51.8024C63.5476 51.34 63.6809 50.8898 63.9127 50.489C64.1446 50.0881 64.4684 49.7481 64.8574 49.497Z" fill="#59C09D"/>
</g>
</g>
<path d="M87.0055 133.343C87.7362 132.565 88.4487 129.028 88.4487 129.028C88.4487 129.028 88.8432 127.706 88.7848 127.15C88.7263 126.595 88.1381 122.846 88.1381 122.846L91.81 122.481C91.81 122.481 91.6054 125.568 91.5871 126.562C91.555 127.69 91.703 128.816 92.0255 129.898C91.8465 130.42 89.8334 134.067 89.8334 134.081C89.8334 134.096 87.6412 134.64 87.6412 134.64L86.5853 134.202L87.0055 133.343Z" fill="#FFA8A7"/>
<path d="M86.4465 135.386C85.9386 135.269 84.2945 134.129 85.2993 133.614C85.782 133.354 86.3473 133.294 86.8739 133.445C86.8739 133.445 86.6584 133.844 87.0018 133.811C87.6595 133.749 88.1673 130.866 88.1673 129.901L89.9941 130.559L89.2634 134.538L88.4231 135.082L87.0201 135.386H86.4465Z" fill="#2D2979"/>
<path d="M88.8688 131.334C88.8286 133.603 88.4523 133.891 88.2038 134.41C88.0657 134.695 87.8453 134.932 87.5711 135.09C87.2968 135.248 86.9814 135.321 86.6656 135.298C87.3781 135.663 90.9696 135.572 91.7186 135.027C92.1351 134.724 91.8611 133.891 91.8501 132.894C91.8391 131.896 92.1497 130.775 92.1314 130.238C92.1131 129.701 88.8688 131.334 88.8688 131.334Z" fill="#291D51"/>
<path d="M90.0745 127.961C88.9565 128.005 88.2148 129.058 88.1563 130.026C88.0979 130.994 89.0661 131.089 89.8151 132.916C90.2096 133.873 90.3229 135.331 90.3375 136.679C90.4258 136.757 90.5409 136.798 90.6587 136.793C90.7765 136.788 90.8879 136.738 90.9696 136.653C90.9696 136.653 90.9696 135.557 91.0354 134.52C91.0793 133.784 91.1709 133.052 91.3094 132.327C91.6017 131.341 92.2009 130.892 92.1132 129.898C92.0696 129.334 91.8683 128.793 91.5322 128.338C91.106 128.044 90.5896 127.911 90.0745 127.961Z" fill="#2D2979"/>
<path d="M82.844 140.957C82.844 140.957 83.1728 141.534 84.9485 140.785C85.4941 140.581 85.9917 140.267 86.4099 139.861C86.5995 139.197 86.8301 138.546 87.1004 137.91C87.1004 137.91 86.7351 135.583 85.639 136.482C84.5429 137.38 82.844 140.957 82.844 140.957Z" fill="#291D51"/>
<path d="M86.9543 128.356C87.1625 129.664 87.2648 130.574 87.4073 131.385C87.4786 131.882 87.6623 132.357 87.9444 132.773C88.333 133.266 88.5974 133.845 88.7153 134.461C88.7153 134.461 86.5999 134.761 85.5257 136.215C84.4516 137.669 84.5137 139.138 83.5163 139.364C82.5188 139.591 80.8564 138.462 80.8564 138.462C80.8564 138.462 81.9087 138.418 82.3179 137.095C82.7271 135.773 83.8049 132.905 83.8999 132.167C84.0278 131.136 83.1034 129.01 83.1034 129.01L86.9543 128.356Z" fill="#FFA8A7"/>
<path d="M87.3123 132.832C86.3952 132.89 84.9996 134.348 84.5319 135.411C84.0642 136.474 83.2824 137.969 82.6832 138.308C82.084 138.648 81.0245 138.159 80.1257 138.151C79.2269 138.144 78.5839 138.564 78.5327 139.222L82.2923 141.005C83.1582 141.418 83.8925 141.429 84.5721 139.627C85.2517 137.826 85.8837 136.27 86.746 137.534C87.4986 138.63 87.8092 140.822 87.8092 140.822C87.8092 140.822 88.1745 141.1 88.5655 140.658C88.4248 140.035 88.3526 139.399 88.3499 138.761C88.317 136.343 89.1829 135.755 88.9674 134.801C88.6495 133.398 88.3097 132.77 87.3123 132.832Z" fill="#2D2979"/>
<path d="M77.1773 38.2987C77.1773 38.2987 74.7769 36.903 75.018 34.8241C75.2591 32.7453 78.4524 27.6412 84.1191 30.1147C89.4643 31.2729 77.1773 38.2987 77.1773 38.2987Z" fill="#543354"/>
<path d="M90.7979 47.5095C92.431 47.9808 93.3554 49.793 94.8168 53.6621C96.2782 57.5312 97.7397 63.1614 97.5607 64.6631C97.0967 68.3166 94.8314 71.4222 90.9294 74.0089L89.183 70.8157C89.183 70.8157 93.0156 67.7357 93.381 64.0858C93.5856 62.0398 90.9294 55.0687 90.9294 54.8787C90.9294 54.6888 90.7979 47.5095 90.7979 47.5095Z" fill="#FFA8A7"/>
<path d="M92.4639 110.486C91.9341 106.405 92.0181 104.535 92.0181 104.535C92.0181 104.535 92.6575 98.3491 93.1727 93.0441C93.9326 85.2217 95.4233 83.4497 94.5684 78.7293C93.8376 74.6446 91.1011 71.4733 89.8881 68.4737L77.1188 69.4784C77.1188 69.4784 76.0227 73.0991 74.5613 80.3077C73.0999 87.5162 73.6662 97.2968 74.7549 107.362C75.0692 110.285 76.9106 114.18 78.9785 119.123C80.871 123.647 83.7282 131.093 83.7282 131.093C85.7011 132.24 87.2831 130.27 87.2831 130.27C87.2831 130.27 85.8217 120.464 85.2225 117.147C84.2141 111.509 81.5689 108.744 81.5689 108.744C81.5689 108.744 82.1608 104.637 82.5809 101.002C83.034 97.0594 84.3639 90.5194 84.3639 90.5194C84.3639 90.5194 84.4296 100.644 84.6306 103.563C84.8315 106.482 84.9485 106.851 85.9605 112.503C86.8008 117.183 88.6495 126.442 88.6495 126.442C89.1205 126.627 89.6245 126.714 90.1303 126.697C90.6362 126.68 91.1332 126.559 91.5907 126.343C91.5907 126.343 92.9973 114.571 92.4639 110.486Z" fill="#7FA8E6"/>
<path d="M92.0182 83.3876C89.4936 85.9963 85.0033 86.5443 85.0033 86.5443L84.4041 90.5633C84.2324 93.8515 84.6599 97.717 84.5758 101.469C84.5758 101.469 85.4929 91.6813 86.7095 90.0591C87.9262 88.4369 91.2034 85.62 92.0182 83.3876Z" fill="#597BC6"/>
<path d="M90.0379 47.4363C87.3196 47.2719 87.0602 47.7213 86.841 46.7568C86.7643 46.4133 86.6145 44.0202 86.6145 44.0202C86.8631 43.7016 87.0889 43.3659 87.2904 43.0155C88.2025 42.4624 88.9741 41.7054 89.5446 40.804C90.1152 39.9026 90.4691 38.8812 90.5786 37.8201C90.7719 35.9791 90.2262 34.1367 89.0615 32.698C87.8968 31.2592 86.2084 30.3418 84.3675 30.1476C80.7614 29.7822 78.1053 32.3068 77.3965 35.7851C77.0311 37.5059 76.6219 41.0133 77.6887 43.823C78.2916 45.4159 78.8506 46.5303 80.2901 46.4718C80.7701 46.428 81.2456 46.3437 81.7113 46.2197C81.7877 46.883 81.8145 47.551 81.7917 48.2182C81.7515 48.9124 81.8721 49.2631 80.5093 50.0998C79.1465 50.9365 82.5699 52.6573 84.8023 52.4929C87.0346 52.3285 89.5519 50.9767 90.2425 49.5299C91.0097 47.9259 91.3203 47.5131 90.0379 47.4363Z" fill="#FFA8A7"/>
<path d="M88.0979 42.431L85.7523 42.5552L83.1948 42.515L82.4057 41.5943C82.4057 41.5943 82.2412 44.5427 81.4375 45.2479C80.8841 45.7177 80.2602 46.0975 79.5887 46.3732C79.8139 46.4458 80.0502 46.4779 80.2866 46.4682C80.7666 46.4244 81.242 46.3401 81.7078 46.2161C81.7841 46.8793 81.811 47.5474 81.7882 48.2146C81.748 48.9088 81.8686 49.2595 80.5058 50.0962C79.143 50.9329 82.5664 52.6537 84.7988 52.4893C87.0311 52.3249 89.5484 50.9731 90.2389 49.5262C91.0062 47.915 91.335 47.5021 90.0344 47.4254C87.3161 47.261 87.0567 47.7104 86.8375 46.7459C86.7607 46.4024 86.6109 44.0093 86.6109 44.0093C86.8596 43.6907 87.0854 43.355 87.2869 43.0046C87.5703 42.8326 87.8413 42.6409 88.0979 42.431Z" fill="#F28F8F"/>
<path d="M88.0504 43.2494C89.8004 41.6528 90.3521 40.0671 90.586 37.8201C90.7793 35.9792 90.2336 34.1368 89.0688 32.698C87.9041 31.2592 86.2157 30.3419 84.3749 30.1476C81.8868 29.8882 79.2818 30.776 78.0322 33.8743C78.1173 34.0268 78.2377 34.1568 78.3832 34.2534C78.5288 34.35 78.6953 34.4104 78.8689 34.4296C78.8184 34.6851 78.825 34.9485 78.8882 35.2012C78.9513 35.4538 79.0695 35.6894 79.2343 35.891C79.7249 36.4459 80.0279 37.1415 80.1002 37.8786C80.1513 38.5399 80.038 39.5081 80.228 40.2023C80.3069 40.4514 80.4672 40.6669 80.6832 40.814C80.8992 40.9611 81.1584 41.0313 81.4191 41.0134C81.4191 41.0134 81.4812 39.5519 81.6274 38.1818C82.0548 37.2063 83.7976 36.9908 84.1191 38.2476C84.4114 39.3875 84.1191 40.0744 83.7245 40.9184C83.4213 41.5322 82.8842 41.8537 82.3946 41.6162C82.3946 43.3297 83.0376 44.1116 84.5502 44.5391C86.0628 44.9666 86.209 44.4039 86.9872 44.002C87.365 43.786 87.721 43.5339 88.0504 43.2494Z" fill="#543354"/>
<path d="M87.3416 47.3779C87.8421 48.0026 87.8969 48.7918 85.9569 49.2814C83.4213 49.9171 81.7114 48.9562 81.7114 48.9562C80.1848 49.6025 78.7178 50.3813 77.3271 51.2836C72.9903 54.2941 71.9417 59.5297 76.3187 61.3309C76.5854 63.2966 76.9106 68.3604 76.9946 69.5113C80.692 72.0944 88.2111 71.2139 89.8991 68.4737C89.9259 67.557 90.0114 66.6429 90.1548 65.7371C91.9232 59.1899 93.3006 57.4508 92.8073 52.5112C92.526 49.6869 92.3105 48.2657 90.8088 47.5094C89.8881 47.2171 87.886 47.3413 87.3416 47.3779Z" fill="#F5FBFB"/>
<path d="M82.4093 41.5943V58.7662C82.4093 58.7662 84.1886 59.9901 87.2941 58.5067C90.3997 57.0234 90.6262 56.121 90.6262 54.4878V36.9871C90.6262 36.9871 87.0859 41.1851 84.5393 42.051C82.5627 42.7342 82.4093 41.5943 82.4093 41.5943Z" fill="#543354"/>
<path d="M50.7181 68.4701C51.5584 68.7806 52.4024 68.7368 53.5532 69.2702C54.4058 69.7107 55.3216 70.0164 56.2679 70.1763C57.2945 70.3444 58.8948 69.811 61.6569 68.5066C64.9159 66.9685 68.4087 63.9433 69.7386 62.4307C72.3887 59.2791 74.7557 55.8998 76.812 52.3322C78.003 50.14 79.5229 49.603 80.8309 50.0341C82.4056 50.5492 82.5993 52.1166 80.8492 55.0578C79.0991 57.9989 76.0995 62.3649 72.7674 65.6532C70.3187 68.0998 67.4691 70.109 64.3423 71.5939C61.4194 72.9896 60.411 73.3549 57.2543 74.0601C56.3921 74.2501 55.7929 74.6045 54.2036 75.1562C52.6143 75.7078 50.6267 75.9746 49.2383 75.7042C47.85 75.4338 47.3896 75.116 47.3202 74.8091C47.2362 74.4254 47.5504 74.2245 48.1971 74.2756C49.2201 74.4353 50.2637 74.4081 51.277 74.1953C51.277 74.1953 49.8522 74.1551 49.0009 74.0528C48.2487 73.9641 47.5115 73.7762 46.8087 73.4938C46.1328 73.2051 45.9063 72.1346 46.5603 72.1712C47.2143 72.2077 47.7148 72.4123 48.9789 72.5365C49.6473 72.6084 50.3218 72.601 50.9884 72.5146C50.1517 72.3761 49.3271 72.1721 48.5222 71.9045C47.4262 71.5099 47.0608 71.1226 46.8087 70.8522C46.5566 70.5819 46.6406 69.9279 47.4481 70.0813C48.1788 70.2202 49.0337 70.7024 50.4586 70.7463C51.4926 70.7828 52.227 70.6622 52.0955 70.5015C51.9639 70.3407 51.3647 70.3626 50.5646 69.9242C49.7645 69.4858 49.326 68.6418 49.5927 68.2399C49.8595 67.838 49.8741 68.1595 50.7181 68.4701Z" fill="#FFA8A7"/>
</svg>
