<svg width="169" height="31" viewBox="0 0 169 31" fill="none" xmlns="http://www.w3.org/2000/svg">
<path d="M23.9289 13.8508L24.7667 15.3134L25.6046 16.776L23.9115 19.6912L22.2333 16.766L23.9289 13.8508Z" fill="white"/>
<path d="M27.3176 8.02039L32.2506 16.6222L24.147 30.5636L17.6027 30.5463L15.9145 30.5413L14.2289 30.5364L15.922 27.6187L20.5377 19.6812L22.2159 22.6088L19.2958 27.6311L22.4688 27.6385L28.8793 16.6148L25.6245 10.9381L27.3176 8.02039Z" fill="white"/>
<path d="M24.8982 7.75025L27.1714 3.83605L28.0489 4.32439L27.806 2.75028L27.449 0.467201V0.464722L27.4465 0.467201L25.2031 1.41415L23.8521 1.98678L24.6206 2.41563L23.22 4.82513L21.5269 7.74282L9.98011 27.6014H9.71735L3.3738 16.5355L9.7818 5.50931L16.7748 5.52914L8.5473 19.6887L10.223 22.6138L20.1486 5.54154L21.8417 2.62386L18.4704 2.61642L8.10357 2.58419L0 16.5256L8.02177 30.5141H8.28701L11.6608 30.5265L13.3514 27.6113L23.2026 10.6679L24.8982 7.75025Z" fill="white"/>
<path d="M43.8496 17.2272C42.6146 16.63 41.2547 16.3368 39.8833 16.372H34.9131V30.3035H39.8883C41.2596 30.3387 42.6195 30.0454 43.8545 29.4482C44.9333 28.9104 45.8318 28.0696 46.44 27.0288C47.0701 25.9029 47.3836 24.6274 47.3473 23.3377C47.383 22.0437 47.066 20.7643 46.4301 19.6367C45.821 18.6009 44.9246 17.764 43.8496 17.2272ZM43.5298 25.2391C43.3303 25.7137 43.0201 26.1336 42.625 26.4636C42.238 26.7724 41.7904 26.9963 41.3112 27.1205C40.8079 27.253 40.2897 27.3197 39.7693 27.3189H38.3761V19.3566H39.7693C40.2897 19.3558 40.8079 19.4224 41.3112 19.5549C41.7904 19.6792 42.238 19.903 42.625 20.2118C43.0201 20.5419 43.3303 20.9618 43.5298 21.4364C43.7757 22.0394 43.8938 22.6868 43.8768 23.3377C43.8938 23.9887 43.7757 24.6361 43.5298 25.2391Z" fill="white"/>
<path d="M61.5614 18.0823C60.8775 17.4268 60.0692 16.9152 59.1841 16.5776C57.2638 15.8717 55.155 15.8717 53.2347 16.5776C52.3462 16.9131 51.5343 17.424 50.8475 18.0799C50.1683 18.7346 49.6293 19.5207 49.2635 20.3902C48.8777 21.3235 48.6854 22.3254 48.6983 23.3352C48.6852 24.3527 48.8705 25.3631 49.2436 26.3099C49.5956 27.1912 50.1246 27.991 50.7979 28.6599C51.4773 29.3301 52.2862 29.8547 53.1752 30.2018C55.1193 30.9321 57.2623 30.9321 59.2064 30.2018C60.0958 29.8542 60.9054 29.3296 61.5862 28.6599C62.258 27.9904 62.7861 27.1907 63.138 26.3099C63.5119 25.3633 63.698 24.3529 63.6858 23.3352C63.6986 22.3261 63.5089 21.3247 63.128 20.3902C62.7703 19.5212 62.237 18.7355 61.5614 18.0823ZM59.6427 25.5191C59.3334 26.1338 58.8575 26.6492 58.2694 27.0064C57.6365 27.3592 56.924 27.5444 56.1995 27.5444C55.4749 27.5444 54.7624 27.3592 54.1296 27.0064C53.5403 26.6506 53.064 26.1349 52.7563 25.5191C52.4348 24.8377 52.268 24.0936 52.268 23.3401C52.268 22.5867 52.4348 21.8426 52.7563 21.1612C53.064 20.5454 53.5403 20.0296 54.1296 19.6738C54.7678 19.3209 55.4851 19.1358 56.2143 19.1358C56.9436 19.1358 57.6609 19.3209 58.2991 19.6738C58.8815 20.032 59.3508 20.5476 59.6526 21.1612C59.9809 21.8398 60.144 22.5864 60.1286 23.3401C60.144 24.0941 59.9774 24.8408 59.6427 25.5166V25.5191Z" fill="white"/>
<path d="M77.9024 18.0823C77.2186 17.4268 76.4102 16.9152 75.5252 16.5776C73.6048 15.8717 71.4961 15.8717 69.5758 16.5776C68.6873 16.9131 67.8754 17.424 67.1886 18.0799C66.5093 18.7346 65.9704 19.5207 65.6045 20.3902C65.2188 21.3235 65.0265 22.3254 65.0393 23.3352C65.0263 24.3527 65.2115 25.3631 65.5847 26.3099C65.9367 27.1912 66.4657 27.991 67.139 28.6599C67.8184 29.3301 68.6273 29.8547 69.5163 30.2018C71.4603 30.9321 73.6034 30.9321 75.5475 30.2018C76.4365 29.8547 77.2454 29.3301 77.9247 28.6599C78.598 27.991 79.127 27.1912 79.479 26.3099C79.8522 25.3631 80.0374 24.3527 80.0244 23.3352C80.038 22.3263 79.8492 21.3249 79.4691 20.3902C79.1114 19.5212 78.578 18.7355 77.9024 18.0823ZM75.9837 25.5191C75.6744 26.1338 75.1986 26.6492 74.6104 27.0064C73.9776 27.3592 73.2651 27.5444 72.5405 27.5444C71.816 27.5444 71.1035 27.3592 70.4706 27.0064C69.8813 26.6506 69.4051 26.1349 69.0973 25.5191C68.7758 24.8377 68.6091 24.0936 68.6091 23.3401C68.6091 22.5867 68.7758 21.8426 69.0973 21.1612C69.4051 20.5454 69.8813 20.0296 70.4706 19.6738C71.1088 19.3209 71.8262 19.1358 72.5554 19.1358C73.2847 19.1358 74.002 19.3209 74.6402 19.6738C75.2226 20.032 75.6918 20.5476 75.9937 21.1612C76.3219 21.8398 76.485 22.5864 76.4696 23.3401C76.4851 24.0941 76.3184 24.8408 75.9837 25.5166V25.5191Z" fill="white"/>
<path d="M84.412 16.3719H82.1835V30.3035H85.4061V24.711H90.4432V22.004H85.4061V19.2574H90.6415V16.3719H85.4061H84.412Z" fill="white"/>
<path d="M96.6132 16.3719H93.1898V30.3035H96.6132V16.3719Z" fill="white"/>
<path d="M109.171 24.2128L99.5582 15.6754V30.3035H102.783V22.4627L112.416 31.0001V16.372H109.171V24.2128Z" fill="white"/>
<path d="M113.869 30.3034H117.672L118.968 27.6163H123.413L124.717 30.3034H128.537L121.194 15.4944L113.869 30.3034ZM122.748 25.0481H119.65L121.194 21.4859L122.748 25.0481Z" fill="white"/>
<path d="M139.602 24.2128L129.989 15.6754V30.3035H133.214V22.4627L142.847 31.0001V16.372H139.602V24.2128Z" fill="white"/>
<path d="M152.642 16.0521C151.59 16.044 150.545 16.2219 149.555 16.5776C148.658 16.8936 147.838 17.3958 147.148 18.0511C146.459 18.7065 145.915 19.5002 145.554 20.3803C144.813 22.2872 144.813 24.4029 145.554 26.3098C145.915 27.1899 146.459 27.9836 147.148 28.639C147.838 29.2943 148.658 29.7965 149.555 30.1125C150.546 30.4656 151.59 30.641 152.642 30.6306C153.504 30.6556 154.364 30.5246 155.18 30.2439C155.84 29.9946 156.457 29.646 157.012 29.2102V25.586C156.691 25.9186 156.338 26.2191 155.958 26.4834C155.049 27.1177 153.961 27.4451 152.852 27.4179C152.131 27.4264 151.418 27.2623 150.772 26.9395C150.144 26.6232 149.617 26.1371 149.25 25.5364C148.852 24.8736 148.651 24.1107 148.673 23.3376C148.643 22.5631 148.837 21.7964 149.231 21.1289C149.599 20.5328 150.126 20.0505 150.753 19.7357C151.398 19.4129 152.111 19.2488 152.832 19.2573C153.426 19.248 154.017 19.3316 154.585 19.5052C155.068 19.661 155.524 19.8892 155.939 20.182C156.317 20.4511 156.67 20.7548 156.992 21.0892V17.4651C156.443 17.0318 155.832 16.6833 155.18 16.4314C154.364 16.1532 153.504 16.0247 152.642 16.0521Z" fill="white"/>
<path d="M169 19.1384V16.3719H162.971H161.975H159.746V30.3035H161.975H162.971H169V27.537H162.971V24.3317H168.603V21.6248H162.971V19.1384H169Z" fill="white"/>
</svg>
