<svg id="Layer_1" data-name="Layer 1" xmlns="http://www.w3.org/2000/svg" viewBox="0 0 857.54 152.54"><defs><style>.cls-1{fill:#59c09d;}.cls-2{fill:#fff;}</style></defs><title>DOO</title><polygon class="cls-1" points="121.42 67.92 125.67 75.34 129.92 82.76 121.33 97.56 112.82 82.72 121.42 67.92"/><polygon class="cls-1" points="138.61 38.34 163.64 81.99 122.52 152.73 89.31 152.64 80.76 152.61 72.2 152.58 80.8 137.78 104.22 97.5 112.73 112.36 97.91 137.84 114.01 137.89 146.54 81.95 130.02 53.14 138.61 38.34"/><polygon class="cls-1" points="126.33 36.97 137.87 17.11 142.33 19.58 141.09 11.6 139.28 0.01 139.28 0 139.26 0.01 127.89 4.82 121.03 7.73 124.93 9.9 117.83 22.13 109.23 36.93 50.63 137.69 49.31 137.69 17.11 81.55 49.63 25.59 85.12 25.7 43.37 97.54 51.87 112.38 102.24 25.75 110.83 10.96 93.73 10.91 41.12 10.75 0 81.49 40.7 152.48 42.05 152.48 59.16 152.54 67.75 137.75 117.74 51.77 126.33 36.97"/><path class="cls-2" d="M222.5,52.19q-8.49-4.34-20.1-4.34H177.15v70.69H202.4q11.61,0,20.1-4.34a31.37,31.37,0,0,0,13.12-12.27,36.39,36.39,0,0,0,4.65-18.74q0-10.9-4.65-18.78A31.58,31.58,0,0,0,222.5,52.19Zm-1.62,40.65a16.29,16.29,0,0,1-4.6,6.21,17.71,17.71,0,0,1-6.66,3.33,30,30,0,0,1-7.83,1h-7.07V63h7.07a30,30,0,0,1,7.83,1,17.71,17.71,0,0,1,6.66,3.33,16.29,16.29,0,0,1,4.6,6.21,24,24,0,0,1,1.72,9.64A24,24,0,0,1,220.88,92.84Z"/><path class="cls-2" d="M312.38,56.53a35.92,35.92,0,0,0-12.07-7.62,43.74,43.74,0,0,0-30.15,0A35.84,35.84,0,0,0,258,56.53a35.23,35.23,0,0,0-8,11.72,37.93,37.93,0,0,0-2.87,14.94,39.76,39.76,0,0,0,2.77,15,35,35,0,0,0,7.88,11.92A35.65,35.65,0,0,0,269.86,118a43.49,43.49,0,0,0,30.6,0,35.65,35.65,0,0,0,12.07-7.83,35.13,35.13,0,0,0,7.88-11.92,39.76,39.76,0,0,0,2.77-15,38.46,38.46,0,0,0-2.82-14.94A34.66,34.66,0,0,0,312.38,56.53Zm-9.75,37.72a18.56,18.56,0,0,1-7,7.53,21.56,21.56,0,0,1-21,0,18.56,18.56,0,0,1-7-7.53,23.75,23.75,0,0,1-2.48-11.06,23.74,23.74,0,0,1,2.48-11,18.56,18.56,0,0,1,7-7.53,21.87,21.87,0,0,1,21.16,0,18.31,18.31,0,0,1,6.86,7.53,24.1,24.1,0,0,1,2.43,11A23.75,23.75,0,0,1,302.63,94.25Z"/><path class="cls-2" d="M395.29,56.53a35.72,35.72,0,0,0-12.07-7.62,43.71,43.71,0,0,0-30.14,0A35.64,35.64,0,0,0,341,56.53a35.23,35.23,0,0,0-8,11.72,37.76,37.76,0,0,0-2.88,14.94,39.76,39.76,0,0,0,2.78,15,35,35,0,0,0,7.88,11.92A35.65,35.65,0,0,0,352.78,118a43.49,43.49,0,0,0,30.6,0,35.84,35.84,0,0,0,12.07-7.83,35,35,0,0,0,7.87-11.92,39.57,39.57,0,0,0,2.78-15,38.28,38.28,0,0,0-2.83-14.94A34.38,34.38,0,0,0,395.29,56.53Zm-9.74,37.72a18.63,18.63,0,0,1-7,7.53,19.74,19.74,0,0,1-10.45,2.73,20,20,0,0,1-10.56-2.73,18.56,18.56,0,0,1-7-7.53,23.75,23.75,0,0,1-2.47-11.06,23.73,23.73,0,0,1,2.47-11,18.56,18.56,0,0,1,7-7.53,21.87,21.87,0,0,1,21.16,0,18.4,18.4,0,0,1,6.87,7.53,24.23,24.23,0,0,1,2.42,11A23.75,23.75,0,0,1,385.55,94.25Z"/><polygon class="cls-1" points="428.32 47.85 417.01 47.85 417.01 118.54 433.37 118.54 433.37 90.16 458.92 90.16 458.92 76.43 433.37 76.43 433.37 62.49 459.93 62.49 459.93 47.85 433.37 47.85 428.32 47.85"/><rect class="cls-1" x="472.86" y="47.85" width="17.37" height="70.7"/><polygon class="cls-1" points="553.95 87.64 505.18 44.31 505.18 118.54 521.54 118.54 521.54 78.75 570.42 122.08 570.42 47.85 553.95 47.85 553.95 87.64"/><path class="cls-1" d="M577.79,118.54h19.29l6.59-13.63h22.54l6.62,13.63h19.39L615,43.4Zm45.05-26.66H607.12L615,73.8Z"/><polygon class="cls-1" points="708.37 87.64 659.59 44.31 659.59 118.54 675.95 118.54 675.95 78.75 724.84 122.08 724.84 47.85 708.37 47.85 708.37 87.64"/><path class="cls-1" d="M774.53,46.23a45.23,45.23,0,0,0-15.66,2.63,34.18,34.18,0,0,0-20.3,19.29,38.72,38.72,0,0,0-2.83,15,38.73,38.73,0,0,0,2.83,15,34.18,34.18,0,0,0,20.3,19.29,45.23,45.23,0,0,0,15.66,2.63,36.49,36.49,0,0,0,12.82-1.92,35.22,35.22,0,0,0,9.29-5.25V94.61a36,36,0,0,1-5.35,4.54,27.28,27.28,0,0,1-6.87,3.44,27.6,27.6,0,0,1-8.89,1.31A23,23,0,0,1,765,101.47a19.1,19.1,0,0,1-7.73-7.12,20.65,20.65,0,0,1-2.93-11.16A20.58,20.58,0,0,1,757.25,72,19.35,19.35,0,0,1,765,64.91a23.15,23.15,0,0,1,10.55-2.42,28.51,28.51,0,0,1,8.89,1.26,25.42,25.42,0,0,1,6.87,3.44,38.8,38.8,0,0,1,5.35,4.59V53.4a35.22,35.22,0,0,0-9.29-5.25A36.49,36.49,0,0,0,774.53,46.23Z"/><polygon class="cls-1" points="857.54 61.88 857.54 47.85 826.94 47.85 821.89 47.85 810.58 47.85 810.58 118.54 821.89 118.54 826.94 118.54 857.54 118.54 857.54 104.5 826.94 104.5 826.94 88.24 855.52 88.24 855.52 74.51 826.94 74.51 826.94 61.88 857.54 61.88"/></svg>