<svg width="110" height="145" viewBox="0 0 110 145" fill="none" xmlns="http://www.w3.org/2000/svg">
<g style="mix-blend-mode:multiply" opacity="0.15">
<path d="M0.309433 130.47L82.4609 83.0393C82.6816 82.9263 82.926 82.8673 83.174 82.8673C83.4219 82.8673 83.6664 82.9263 83.887 83.0393L85.8099 84.1546C85.8951 84.1851 85.9689 84.2412 86.021 84.3152C86.0732 84.3892 86.1011 84.4775 86.1011 84.568C86.1011 84.6585 86.0732 84.7468 86.021 84.8209C85.9689 84.8949 85.8951 84.951 85.8099 84.9814L3.65202 132.412C3.43087 132.522 3.18738 132.579 2.94056 132.579C2.69374 132.579 2.45026 132.522 2.2291 132.412L0.306228 131.303C0.21721 131.276 0.13943 131.22 0.084312 131.145C0.0291943 131.07 -0.000355376 130.979 3.22567e-06 130.886C0.000361827 130.792 0.0306098 130.702 0.0863043 130.627C0.141999 130.552 0.220204 130.497 0.309433 130.47Z" fill="#6B99D1"/>
</g>
<g style="mix-blend-mode:multiply" opacity="0.15">
<path d="M61.1651 121.977L66.969 118.628C70.9045 116.356 76.343 115.808 79.1119 117.407C81.8809 119.007 80.9354 122.144 76.9968 124.416L71.1961 127.769C67.2574 130.041 61.8221 130.586 59.0532 128.99C56.2842 127.394 57.2296 124.25 61.1651 121.977Z" fill="#6B99D1"/>
</g>
<path d="M73.1123 123.4C73.1123 123.4 73.4168 123.939 75.0768 123.24C76.7369 122.542 77.2048 121.715 77.2048 121.715C77.2048 121.715 76.7722 118.382 75.7466 119.218C74.7211 120.055 73.1123 123.4 73.1123 123.4Z" fill="#291D51"/>
<path d="M77.2819 111.738C77.253 113.485 77.2082 114.824 77.8715 115.76C78.2352 116.219 78.4826 116.759 78.5926 117.334C78.5926 117.334 76.6185 117.613 75.6154 118.971C74.6123 120.33 74.6539 121.686 73.7374 121.913C72.8208 122.141 71.2537 121.067 71.2537 121.067C71.2537 121.067 72.2407 121.029 72.6253 119.785C73.0099 118.542 73.997 115.911 74.0354 115.215C74.0739 114.52 74.045 111.847 74.045 111.847L77.2819 111.738Z" fill="#F28F8F"/>
<path d="M77.3011 116.212C76.4422 116.267 75.125 117.225 74.686 118.222C74.2469 119.218 73.5226 120.615 72.9618 120.926C72.401 121.237 71.4139 120.785 70.571 120.779C69.7282 120.773 69.1289 121.163 69.0808 121.782L72.6061 123.445C73.4169 123.83 74.0995 123.839 74.7341 122.163C75.3686 120.487 75.6122 119.535 76.1185 120.68C76.6249 121.824 76.8332 124.397 76.8332 124.397C77.0259 124.468 77.2384 124.464 77.428 124.385C77.6176 124.306 77.7703 124.158 77.8555 123.971C77.8464 123.221 77.8881 122.472 77.9805 121.728C78.1247 120.692 79.0637 119.388 78.9932 118.145C78.9227 116.901 78.2337 116.154 77.3011 116.212Z" fill="#2D2979"/>
<path d="M73.1124 96.9321L77.3524 97.3038C77.3524 97.3038 78.3426 99.3581 78.3138 100.377C79.5092 103.486 77.3524 111.53 77.5671 115.177C77.5671 115.177 75.6442 116.209 74.0418 115.225C74.0418 115.225 72.3689 99.6016 72.0901 96.8007L73.1124 96.9321Z" fill="#F28F8F"/>
<path d="M64.4053 127.512C64.4053 127.512 64.7258 128.051 66.373 127.355C68.0203 126.66 68.4978 125.826 68.4978 125.826C68.4978 125.826 68.0683 122.497 67.0396 123.333C66.0109 124.17 64.4053 127.512 64.4053 127.512Z" fill="#291D51"/>
<path d="M68.5744 115.85C68.5456 117.6 68.5039 118.936 69.1673 119.872C69.5292 120.337 69.7733 120.882 69.8788 121.461C69.8788 121.461 67.9014 121.74 66.9015 123.096C65.9016 124.452 65.9401 125.814 65.0235 126.038C64.1069 126.262 62.5398 125.195 62.5398 125.195C62.5398 125.195 63.5237 125.157 63.9082 123.913C64.2928 122.67 65.2831 120.039 65.3183 119.343C65.3536 118.648 65.3183 115.968 65.3183 115.968L68.5744 115.85Z" fill="#FFA8A7"/>
<path d="M68.597 120.327C67.7413 120.378 66.4209 121.34 65.9851 122.336C65.5492 123.333 64.8185 124.727 64.2609 125.041C63.7032 125.355 62.713 124.897 61.8669 124.894C61.0208 124.891 60.428 125.278 60.3799 125.894L63.9051 127.557C64.716 127.942 65.3986 127.954 66.0363 126.275C66.6741 124.596 66.9144 123.644 67.4176 124.788C67.9207 125.932 68.1194 128.512 68.1194 128.512C68.3127 128.581 68.5249 128.576 68.7141 128.496C68.9034 128.417 69.056 128.269 69.1418 128.083C69.1325 127.333 69.1732 126.584 69.2635 125.839C69.4078 124.807 70.3468 123.503 70.2763 122.256C70.2058 121.01 69.5263 120.269 68.597 120.327Z" fill="#2D2979"/>
<path d="M69.6193 104.915C70.7666 106.784 69.3853 111.882 68.8373 119.234C68.8373 119.234 67.2028 120.49 65.328 119.523C65.328 119.523 63.7449 104.188 63.4661 101.39" fill="#FFA8A7"/>
<path d="M86.9734 70.0856L7.36655 116.033L4.64248 117.616L1.38962 115.738C1.18513 115.6 1.01512 115.417 0.892839 115.203C0.770554 114.989 0.699284 114.75 0.68457 114.504V48.2354C0.693189 47.9513 0.774867 47.6743 0.921724 47.431C1.05976 47.1781 1.26065 46.9651 1.505 46.8124L82.2912 0.173193C82.5111 0.0593926 82.7551 0 83.0027 0C83.2503 0 83.4943 0.0593926 83.7142 0.173193L86.951 2.04158L86.9734 70.0856Z" fill="#1E3779"/>
<path d="M7.36655 51.1485V116.033L4.64248 117.616L1.38962 115.738C1.18513 115.6 1.01512 115.417 0.892839 115.203C0.770554 114.989 0.699284 114.75 0.68457 114.504V48.2354C0.693189 47.9513 0.774867 47.6743 0.921724 47.431L7.36655 51.1485Z" fill="#031F60"/>
<path d="M6.16127 47.9854L85.4605 2.1986C86.6431 1.51918 87.6013 2.07041 87.6013 3.43565V67.98C87.5612 68.7225 87.3464 69.4449 86.9744 70.0887C86.6024 70.7324 86.0837 71.2793 85.4605 71.6848L6.16448 117.468C4.98191 118.151 4.02368 117.597 4.02368 116.234V51.6869C4.06393 50.9453 4.27846 50.2237 4.64986 49.5805C5.02127 48.9374 5.53908 48.3909 6.16127 47.9854Z" fill="#008599"/>
<path opacity="0.2" d="M19.5636 47.9854L98.8692 2.1986C100.052 1.51918 101.01 2.07041 101.01 3.43565V67.98C100.97 68.7225 100.755 69.4449 100.383 70.0887C100.011 70.7324 99.4925 71.2793 98.8692 71.6848L19.5636 117.468C18.3843 118.151 17.426 117.597 17.426 116.234V51.6869C17.4663 50.9453 17.6808 50.2237 18.0522 49.5805C18.4236 48.9374 18.9414 48.3909 19.5636 47.9854Z" fill="#E9FFFB"/>
<path d="M19.5636 47.9854L98.8692 2.1986C100.052 1.51918 101.01 2.07041 101.01 3.43565V67.98C100.97 68.7224 100.755 69.4449 100.383 70.0887C100.011 70.7324 99.4925 71.2793 98.8692 71.6848L19.5636 117.468C18.3843 118.151 17.426 117.597 17.426 116.234V51.6869C17.4663 50.9453 17.6808 50.2237 18.0522 49.5805C18.4236 48.9374 18.9414 48.3909 19.5636 47.9854Z" stroke="#E9FFFB" stroke-miterlimit="10"/>
<path d="M35.7574 57.9138L36.3759 57.5549C38.1738 56.5165 40.1351 56.5934 41.5901 57.5805C42.3624 58.1029 44.3302 59.1605 44.3302 59.1605L45.391 65.0765C46.5479 68.0409 49.7174 69.1562 52.4735 67.5634L52.5248 67.5346C55.2809 65.9322 57.6973 62.0864 57.9217 58.9073L60.4599 38.0025C60.6842 34.8297 63.0077 31.0224 65.6452 29.497C66.3014 29.094 67.0503 28.8667 67.8198 28.8369C68.5894 28.8072 69.3536 28.976 70.039 29.3271C71.0741 29.8655 73.3495 31.25 73.3495 31.25L75.5768 43.8192C76.6793 46.8028 79.5476 48.0815 81.9864 46.6746C82.5678 46.3079 83.2411 46.1133 83.9285 46.1133C84.6159 46.1133 85.2892 46.3079 85.8706 46.6746C86.7968 47.2675 88.6203 48.2962 88.6203 48.2962L90.947 60.7949L30.7803 99.3965L27.4377 97.4737L30.258 66.5379C30.5336 63.3619 33.0013 59.5034 35.7574 57.9138Z" fill="#0D88D6"/>
<path d="M39.1127 59.8431L39.7312 59.4874C42.4874 57.885 45.6216 58.9329 46.7337 61.8076L48.7271 67.0058C49.8808 69.9702 53.0503 71.0855 55.8064 69.4927L55.8577 69.4639C58.6138 67.8615 61.0302 64.0157 61.2546 60.8366L63.7896 39.935C64.2927 36.0091 66.3534 32.9517 68.9749 31.4295C71.5964 29.9072 74.6474 31.0897 75.7466 34.0734L78.9065 45.7388C80.009 48.7225 82.8773 50.0044 85.3161 48.5943C87.755 47.1842 90.4085 48.5366 91.245 51.6068L94.2767 62.7242L30.7803 99.3966L33.6005 68.4608C33.8793 65.2912 36.347 61.4327 39.1127 59.8431Z" fill="#59C09D"/>
<path d="M31.271 50.0524C31.271 50.7126 31.8639 50.9049 32.5946 50.4851L44.4138 43.6589C45.1413 43.2391 45.7342 42.377 45.7342 41.704C45.7342 41.031 45.1413 40.8515 44.4138 41.2745L32.5946 48.0975C31.8639 48.5206 31.271 49.3955 31.271 50.0524Z" fill="#0D88D6"/>
<path d="M31.271 54.8821C31.271 55.5391 31.8639 55.7346 32.5946 55.3116L44.4138 48.4886C45.1413 48.0655 45.7342 47.1906 45.7342 46.5337C45.7342 45.8767 45.1413 45.6812 44.4138 46.1042L32.5946 52.9272C31.8639 53.347 31.271 54.2219 31.271 54.8821Z" fill="#0D88D6"/>
<g style="mix-blend-mode:multiply" opacity="0.15">
<path d="M108.689 130.977L89.5627 119.936C88.9005 119.599 88.168 119.424 87.4251 119.424C86.6822 119.424 85.9498 119.599 85.2875 119.936L66.1614 130.977C64.982 131.659 64.982 132.765 66.1614 133.447L85.2875 144.488C85.9498 144.825 86.6822 145 87.4251 145C88.168 145 88.9005 144.825 89.5627 144.488L108.689 133.447C109.871 132.765 109.871 131.659 108.689 130.977Z" fill="#6B99D1"/>
</g>
<path d="M108.689 107.309L89.5627 96.2687C88.9005 95.9321 88.168 95.7566 87.4251 95.7566C86.6822 95.7566 85.9498 95.9321 85.2875 96.2687L66.1614 107.309C64.982 107.992 64.982 109.097 66.1614 109.78L85.2875 120.821C85.9498 121.157 86.6822 121.333 87.4251 121.333C88.168 121.333 88.9005 121.157 89.5627 120.821L108.689 109.78C109.871 109.097 109.871 108.001 108.689 107.309Z" fill="#DCEEFF"/>
<path d="M87.4251 96.0764C88.1139 96.0602 88.795 96.2225 89.4025 96.5475L108.529 107.588C108.997 107.857 109.253 108.197 109.253 108.549C109.253 108.902 108.997 109.235 108.529 109.511L89.4025 120.555C88.7887 120.862 88.1117 121.022 87.4251 121.022C86.7386 121.022 86.0615 120.862 85.4478 120.555L66.3216 109.501C65.8537 109.232 65.5973 108.892 65.5973 108.54C65.5973 108.187 65.8537 107.851 66.3216 107.578L85.4478 96.5379C86.0552 96.2129 86.7364 96.0506 87.4251 96.0668V96.0764ZM87.4251 95.7463C86.6806 95.7329 85.945 95.9094 85.2875 96.2591L66.1614 107.309C64.982 107.992 64.982 109.097 66.1614 109.78L85.2875 120.821C85.9496 121.158 86.6821 121.333 87.4251 121.333C88.1681 121.333 88.9006 121.158 89.5627 120.821L108.689 109.78C109.871 109.097 109.871 107.992 108.689 107.309L89.5627 96.2687C88.9055 95.9186 88.1697 95.7421 87.4251 95.7559V95.7463Z" fill="white"/>
<path d="M109.573 127.845C109.573 128.355 109.234 128.756 108.689 129.079L89.5626 140.123C88.9059 140.474 88.1696 140.65 87.425 140.633V121.33C88.1697 121.349 88.9064 121.173 89.5626 120.821L108.689 109.78C109.163 109.508 109.573 109.101 109.573 108.546V127.845Z" fill="#A5CBFA"/>
<path d="M65.2769 127.845C65.2769 128.355 65.6198 128.756 66.1614 129.079L85.2875 140.123C85.9443 140.474 86.6806 140.65 87.4251 140.633V121.33C86.6805 121.349 85.9438 121.173 85.2875 120.821L66.1614 109.78C65.6871 109.508 65.2769 109.101 65.2769 108.546V127.845Z" fill="#C8E2FF"/>
<path d="M91.1652 65.1022C89.6814 64.0991 87.6399 63.4517 85.8581 63.8202C84.757 64.0788 83.7783 64.7079 83.0859 65.6021C82.7462 66.0123 82.2142 67.2814 82.4866 68.871C82.6212 69.6562 83.1917 70.4189 83.9801 70.5439C84.4709 70.5908 84.9643 70.4856 85.3934 70.2426C85.7179 70.0223 86.0196 69.77 86.2939 69.4895C86.89 69.012 87.4701 68.5121 88.0405 68.0057C88.9827 67.1725 89.9025 66.3168 90.8127 65.4419C90.9244 65.3228 91.0421 65.2094 91.1652 65.1022Z" fill="#3A2C6D"/>
<path d="M77.4806 92.9037C79.4964 93.6408 92.4181 98.7492 92.4181 98.7492C92.4181 98.7492 91.8829 108.408 88.973 106.848L75.6475 98.7492L72.0966 96.8007C71.7697 93.6504 75.2693 92.0993 77.4806 92.9037Z" fill="#F28F8F"/>
<path d="M63.4695 101.39C63.149 98.2396 66.6551 96.6853 68.8664 97.4929C70.879 98.2268 84.0763 102.874 84.0763 102.874L95.8378 102.201C97.8568 107.008 94.3797 109.418 90.6076 111.078C86.8356 112.738 83.2751 113.001 80.3683 111.437L67.03 103.335L68.7478 101.893C68.7478 101.893 69.6547 103.896 69.6291 104.915" fill="#FFA8A7"/>
<path d="M83.5954 69.294C84.0312 66.4802 86.0599 64.349 88.9634 64.5125C90.446 64.5976 91.8341 65.2679 92.8226 66.376C93.8112 67.4842 94.3193 68.9395 94.2353 70.4221C94.1867 71.2764 93.9409 72.1078 93.5172 72.8512C93.0936 73.5946 92.5035 74.2297 91.7932 74.7069C91.6452 74.9957 91.4759 75.2731 91.2869 75.5369C91.2869 75.5369 91.6843 77.4822 91.758 77.7578C91.9695 78.5206 92.1458 78.2802 94.3218 78.3091C95.3505 78.3091 94.9628 78.5014 94.3987 79.8217C93.8988 81.0043 91.9375 82.1805 90.1524 82.4016C88.3673 82.6227 85.5631 81.3696 86.6271 80.6486C87.6911 79.9275 88.1494 79.7897 88.034 79.2417C87.9058 78.6404 87.7377 78.0483 87.5309 77.4694C87.1347 77.597 86.7284 77.6903 86.3163 77.7482C85.1657 77.8476 84.6754 76.9791 84.1306 75.726C83.1724 73.5147 83.355 70.6849 83.5954 69.294Z" fill="#FFA8A7"/>
<path d="M87.534 77.4694C87.1379 77.597 86.7315 77.6903 86.3194 77.7482C86.0764 77.7751 85.8305 77.7443 85.6016 77.6585C85.9903 77.5035 86.3517 77.2871 86.672 77.0175C87.5405 76.3285 87.3834 74.8126 87.3706 73.9762L87.6687 74.7678L88.2199 75.287L90.4023 75.8606L91.3349 75.7484C91.4407 76.2612 91.7035 77.5239 91.7612 77.745C91.9727 78.5078 92.1489 78.2674 94.325 78.2962C95.3537 78.2962 94.9659 78.4885 94.4019 79.8089C94.0814 80.5396 93.2257 81.2671 92.1874 81.767L91.258 82.1324L91.1458 82.1676L86.829 80.4979C87.7392 79.8986 88.1366 79.7384 88.0308 79.216C87.9036 78.6236 87.7377 78.0401 87.534 77.4694Z" fill="#F28F8F"/>
<path d="M94.5909 95.2463C94.7031 96.8487 95.4627 98.2973 96.4209 101.367C97.3791 104.438 97.5778 107.883 92.056 110.639C86.5341 113.395 82.948 112.946 80.1662 111.556C77.3845 110.165 67.0266 103.335 67.0266 103.335C65.8152 101.733 70.507 94.5285 79.9387 93.8427L86.5822 96.4642L94.5909 95.2463Z" fill="#7FA8E6"/>
<path d="M92.5464 78.3283C92.9502 78.8283 92.9951 79.4628 91.4375 79.8538C90.3075 80.1773 89.0989 80.0852 88.0309 79.5942C86.8037 80.112 85.6241 80.7361 84.5056 81.4594C81.0252 83.8758 80.1855 88.0741 83.6948 89.5194C83.9095 91.0962 84.1691 95.1566 84.2364 96.0828C87.204 98.1531 93.2354 97.4481 94.5878 95.2464C94.6111 94.5122 94.6795 93.7801 94.7929 93.0543C96.2095 87.8016 97.3151 86.4076 96.9209 82.4465C96.6934 80.1807 96.5203 79.0398 95.3185 78.4341C94.591 78.1969 92.9855 78.2995 92.5464 78.3283Z" fill="#F5FBFB"/>
<path d="M92.4152 74.8672C93.7548 73.5212 94.1361 72.2296 94.2387 70.4221C94.3227 68.939 93.8141 67.4832 92.8249 66.375C91.8356 65.2668 90.4467 64.5968 88.9636 64.5125C88.0604 64.4493 87.1576 64.6412 86.3581 65.0661C85.5586 65.4911 84.8946 66.1321 84.4417 66.9161C84.5918 67.1763 84.7797 67.4129 84.9993 67.618C84.94 67.8255 84.9324 68.0443 84.9771 68.2555C85.0218 68.4666 85.1174 68.6636 85.2557 68.8294C85.4182 69.0095 85.5392 69.2231 85.61 69.4552C85.6809 69.6872 85.7 69.932 85.6659 70.1722C85.5969 70.7534 85.5969 71.3407 85.6659 71.922C85.7151 72.1693 85.822 72.4016 85.978 72.5999C86.1339 72.7981 86.3344 72.9568 86.5632 73.0629C86.5632 73.0629 86.6081 71.656 87.0407 71.0567C87.5503 70.3516 88.2521 70.3452 88.9187 71.1304C89.345 71.6303 89.3065 72.9219 88.8258 73.5853C88.0727 74.6204 87.3708 73.9891 87.3708 73.9891C87.6272 74.6813 87.4157 75.6459 88.6527 75.9312C89.6572 76.1515 90.7075 75.9953 91.6043 75.4921C91.8936 75.3097 92.1651 75.1005 92.4152 74.8672Z" fill="#3A2C6D"/>
<path d="M92.0465 65.6694C93.4983 65.256 94.8507 67.4833 95.3667 70.5631C95.8826 73.6429 95.9083 75.742 94.9693 76.8893C94.0303 78.0366 90.1397 79.8089 86.5247 78.4917C86.5247 78.4917 87.5245 77.9373 87.3707 74.005C87.3707 74.005 88.3322 74.9472 90.2358 74.4152C92.1394 73.8832 92.8381 72.2552 92.7067 70.0952C92.5958 68.6057 92.3751 67.1264 92.0465 65.6694Z" fill="#3A2C6D"/>
<path d="M64.1101 80.9915C64.4017 81.6485 64.8632 82.142 65.1965 83.1034C65.3732 83.7791 65.7133 84.4009 66.1868 84.9141C66.7861 85.5903 68.5519 86.6511 71.119 88.01C73.686 89.3688 75.7275 89.3592 77.2529 88.8176C80.5891 87.6254 82.4671 84.7411 84.6239 83.0874C86.1334 81.9273 87.5788 82.4977 87.8063 83.5906C87.9826 84.443 87.2006 86.7953 84.6015 89.2117C82.5889 91.0737 79.1534 93.1088 76.3332 93.1216C74.4251 93.0776 72.5466 92.6413 70.8145 91.8397C68.3725 90.6795 66.6291 89.4553 64.4594 88.0324C63.8697 87.6446 63.3345 87.5036 62.1199 86.8979C60.9053 86.2922 59.649 85.2955 59.0273 84.3341C58.4056 83.3726 58.3351 82.94 58.4729 82.7317C58.6459 82.4689 58.9376 82.5362 59.2677 82.9368C59.7489 83.6141 60.3482 84.1992 61.0367 84.6642C61.0367 84.6642 60.2644 83.8213 59.8445 83.2765C59.4713 82.7852 59.1652 82.2463 58.9344 81.6741C58.7229 81.1261 59.2132 80.3922 59.5593 80.796C59.9054 81.1998 60.0625 81.594 60.6938 82.3984C61.0262 82.8246 61.4081 83.2098 61.8315 83.5457C61.4429 82.9871 61.0989 82.3988 60.8028 81.7863C60.537 81.3052 60.4157 80.7578 60.4534 80.2095C60.4791 79.9275 60.8893 79.6006 61.2514 80.1486C61.5719 80.6422 61.7802 81.4049 62.5494 82.251C63.107 82.8663 63.5877 83.2124 63.607 83.0586C63.6262 82.9047 63.2865 82.5554 63.0846 81.8536C62.8827 81.1517 63.1294 80.4242 63.5108 80.3537C63.8922 80.2832 63.8089 80.3313 64.1101 80.9915Z" fill="#FFA8A7"/>
</svg>
